<?xml version="1.0" standalone="no"?>
<!DOCTYPE svg PUBLIC "-//W3C//DTD SVG 20010904//EN"
 "http://www.w3.org/TR/2001/REC-SVG-20010904/DTD/svg10.dtd">
<svg version="1.0" xmlns="http://www.w3.org/2000/svg"
 width="393.000000pt" height="422.000000pt" viewBox="0 0 393.000000 422.000000"
 preserveAspectRatio="xMidYMid meet">

<g transform="translate(0.000000,422.000000) scale(0.100000,-0.100000)"
fill="#000000" stroke="none">
<path d="M2680 3902 c-16 -6 -1 -22 21 -22 11 0 17 -4 14 -10 -3 -5 1 -10 11
-10 13 0 15 -6 9 -37 -4 -21 -11 -63 -15 -93 l-7 -55 -2 80 c-1 66 -4 76 -13
60 -12 -20 -14 -122 -3 -156 4 -11 -1 -25 -14 -36 -12 -10 -21 -25 -21 -35 0
-10 -7 -18 -15 -18 -8 0 -15 -7 -15 -17 0 -9 -11 -30 -24 -47 -30 -40 -40 -72
-25 -82 8 -4 21 4 35 22 13 16 32 39 42 51 11 12 18 24 15 26 -2 3 1 8 7 12 6
3 9 3 8 -2 -4 -14 23 -54 33 -48 5 4 9 1 9 -4 0 -18 -18 -12 -34 11 -20 29
-20 18 1 -49 l17 -53 47 0 c39 0 52 5 81 33 19 17 44 46 55 62 26 38 45 134
37 189 -9 56 -65 156 -114 200 -36 32 -46 36 -85 34 -25 -2 -49 -5 -55 -6z
m80 -147 c0 -19 -4 -35 -8 -35 -4 0 -6 16 -4 35 2 19 6 35 8 35 2 0 4 -16 4
-35z m-20 -241 c0 -8 -19 -13 -24 -6 -3 5 1 9 9 9 8 0 15 -2 15 -3z"/>
<path d="M2635 3880 c3 -5 8 -10 11 -10 2 0 4 5 4 10 0 6 -5 10 -11 10 -5 0
-7 -4 -4 -10z"/>
<path d="M2616 3813 c-6 -14 -5 -15 5 -6 7 7 10 15 7 18 -3 3 -9 -2 -12 -12z"/>
<path d="M2543 3803 c-3 -10 -8 -22 -11 -27 -3 -5 0 -6 5 -3 11 7 25 47 17 47
-3 0 -7 -8 -11 -17z"/>
<path d="M2657 3803 c-4 -3 -7 -29 -7 -57 0 -36 3 -47 10 -36 7 12 12 100 5
100 -1 0 -5 -3 -8 -7z"/>
<path d="M2566 3781 c-4 -5 -2 -20 3 -33 9 -21 10 -21 10 10 1 32 -3 39 -13
23z"/>
<path d="M2608 3768 c-3 -7 -1 -24 3 -38 6 -22 7 -20 8 13 1 38 -3 47 -11 25z"/>
<path d="M1850 3703 c0 -8 6 -13 13 -12 30 4 57 -2 57 -12 0 -7 -12 -9 -34 -5
-24 5 -35 3 -39 -8 -8 -20 1 -26 38 -26 29 0 34 4 42 39 l10 39 -43 -1 c-31 0
-44 -4 -44 -14z"/>
<path d="M1807 3613 c-20 -73 -21 -71 34 -75 36 -2 53 1 57 10 6 18 1 21 -49
32 l-44 9 48 -3 c35 -3 50 0 54 11 8 19 3 22 -49 28 -39 5 -47 3 -51 -12z"/>
<path d="M1787 3524 c-16 -16 -6 -34 21 -35 15 0 36 -4 47 -9 14 -6 5 -7 -27
-4 -36 4 -48 2 -49 -8 0 -7 -2 -30 -5 -50 l-5 -38 48 0 48 0 13 66 c7 37 11
68 10 69 -9 7 -95 15 -101 9z m53 -94 c22 -7 20 -8 -12 -7 -21 1 -38 5 -38 9
0 10 16 9 50 -2z"/>
<path d="M3234 3393 c3 -24 1 -43 -3 -43 -5 0 -7 -9 -4 -20 3 -12 0 -20 -7
-20 -7 0 -10 -7 -6 -15 3 -9 -1 -18 -9 -22 -10 -3 -13 -12 -10 -24 4 -11 2
-19 -4 -19 -6 0 -11 -6 -11 -13 0 -21 -117 -230 -134 -239 -12 -7 -16 -5 -16
7 0 8 -4 15 -10 15 -5 0 -10 -6 -10 -13 0 -8 -9 -22 -19 -31 -19 -18 -21 -31
-8 -53 5 -7 4 -13 0 -13 -5 0 -14 10 -22 22 -10 16 -11 23 -2 26 7 2 1 13 -15
27 -28 24 -26 29 21 38 27 6 28 5 8 -5 -27 -13 -28 -21 -8 -38 12 -10 15 -9
15 7 0 18 33 63 47 63 4 0 3 -3 0 -7 -8 -7 11 -33 24 -33 5 0 6 6 3 14 -3 7 2
16 10 19 16 6 23 59 9 55 -5 0 -17 3 -27 7 -13 6 -21 4 -24 -3 -2 -7 -10 -12
-18 -12 -9 0 -13 -4 -10 -9 4 -5 -3 -7 -14 -4 -15 4 -18 1 -15 -16 2 -12 0
-19 -5 -16 -12 7 -6 35 11 45 10 7 6 8 -11 6 -14 -2 -32 -6 -40 -9 -40 -15
-43 -17 -18 -14 26 4 38 -8 38 -36 0 -8 -3 -8 -11 0 -9 9 -15 8 -26 -2 -10
-11 -20 -12 -40 -4 -31 11 -77 4 -68 -11 3 -6 13 -10 21 -10 8 0 12 5 9 10 -3
6 -2 10 4 10 24 0 18 -19 -9 -29 -17 -5 -28 -6 -25 -2 8 13 -59 20 -67 7 -6
-8 -8 -8 -8 1 0 7 -9 9 -22 5 l-22 -5 22 -10 c12 -6 22 -14 22 -19 0 -5 -9 -4
-21 2 -11 7 -32 9 -45 6 -13 -4 -24 -2 -24 2 0 5 -15 4 -34 -2 -19 -6 -32 -14
-29 -19 3 -5 -5 -7 -18 -5 -44 6 -33 -26 21 -63 48 -33 69 -66 55 -88 -11 -19
-34 -12 -87 29 -110 84 -411 218 -590 264 -55 13 -58 13 -58 -4 0 -20 34 -33
113 -46 20 -4 37 -10 37 -14 0 -4 18 -10 40 -14 24 -4 40 -12 40 -20 0 -9 8
-12 25 -8 15 2 25 0 25 -7 0 -7 6 -11 13 -10 13 2 41 -6 69 -22 10 -5 25 -9
33 -9 8 0 15 -5 15 -11 0 -6 6 -9 14 -6 8 3 20 -1 26 -8 7 -8 16 -12 21 -9 17
10 9 -29 -8 -42 -11 -8 -13 -13 -5 -14 6 0 12 -5 12 -11 0 -6 -9 -9 -20 -6
-12 3 -25 -2 -33 -12 -6 -10 -21 -23 -32 -29 -11 -6 -14 -12 -7 -12 6 0 12 -7
12 -16 0 -12 -3 -14 -13 -6 -7 6 -19 7 -26 3 -10 -6 -9 -10 3 -14 9 -4 16 -11
16 -17 0 -6 -5 -8 -12 -4 -6 4 -8 3 -4 -4 3 -5 50 -34 104 -62 53 -29 126 -73
162 -99 68 -49 239 -118 355 -142 33 -7 71 -21 84 -31 l23 -18 -28 -10 c-33
-13 -78 -7 -182 26 -42 13 -80 24 -84 24 -4 0 12 -30 37 -67 39 -58 65 -126
53 -138 -7 -7 -44 34 -99 110 -71 98 -107 133 -148 146 -20 7 -144 57 -276
112 -259 107 -455 181 -463 173 -12 -13 11 -36 42 -42 20 -3 36 -10 36 -14 0
-5 9 -6 20 -3 12 3 20 0 20 -6 0 -7 3 -10 8 -8 4 3 25 -3 46 -14 22 -10 46
-19 53 -19 7 0 13 -5 13 -11 0 -6 7 -8 15 -5 23 9 30 -20 11 -49 -9 -14 -12
-25 -6 -25 5 0 10 5 10 12 0 9 3 9 11 1 16 -16 1 -35 -22 -28 -21 7 -25 -5 -7
-23 17 -17 0 -28 -22 -14 -12 7 -21 8 -25 2 -3 -6 -1 -10 5 -10 7 0 10 -6 7
-12 -2 -7 -14 -12 -26 -10 -21 3 -21 2 -6 -15 8 -10 26 -30 38 -44 15 -18 63
-42 147 -74 69 -26 168 -68 220 -92 52 -25 136 -58 185 -75 118 -39 164 -78
93 -78 -41 1 -337 109 -530 194 -37 16 -38 16 -38 -4 0 -11 -2 -20 -5 -20 -20
0 -69 38 -125 95 -36 37 -74 72 -85 77 -11 6 -3 -6 18 -27 37 -38 45 -55 28
-55 -5 0 -64 23 -132 50 -68 27 -126 50 -131 50 -4 0 -8 -7 -8 -15 0 -8 9 -15
20 -15 11 0 20 -5 20 -11 0 -5 4 -8 9 -4 5 3 12 1 16 -5 3 -5 15 -10 26 -10
10 0 19 -4 19 -10 0 -5 9 -10 20 -10 11 0 20 -4 20 -9 0 -5 8 -8 18 -7 12 1
17 -6 17 -26 -1 -17 5 -28 13 -28 7 0 11 -4 7 -10 -3 -5 -12 -7 -19 -4 -8 3
-17 1 -21 -5 -3 -6 -2 -11 3 -11 5 0 12 -9 15 -20 6 -23 -3 -26 -22 -7 -10 10
-15 8 -27 -8 -14 -18 -13 -21 8 -27 13 -3 19 -7 13 -8 -26 -4 36 -19 85 -20
33 0 69 -8 90 -20 l35 -18 -30 -12 c-19 -8 -69 -10 -136 -8 l-106 4 28 -48
c16 -27 32 -67 35 -89 l7 -40 -30 17 c-17 10 -42 41 -58 71 -32 62 -86 113
-119 113 -13 0 -42 7 -64 14 -65 23 -59 0 8 -31 35 -16 58 -33 55 -40 -2 -7 2
-10 9 -7 27 10 25 -14 -5 -60 -16 -26 -25 -45 -20 -42 5 3 12 -1 15 -10 4 -11
0 -15 -17 -14 -34 3 -43 1 -30 -8 8 -5 9 -12 2 -22 -8 -11 -12 -12 -16 -2 -2
6 -9 9 -14 6 -6 -3 -5 -12 2 -21 10 -12 10 -16 -2 -24 -10 -6 -4 -9 21 -10
114 -5 133 -8 147 -22 26 -26 -19 -42 -109 -40 -77 2 -94 -6 -69 -32 15 -16
40 -111 32 -124 -5 -8 -16 -7 -39 4 -24 12 -34 27 -43 58 -20 74 -53 127 -76
120 -6 -2 -27 3 -46 11 -20 8 -38 12 -41 8 -10 -9 -7 -22 5 -22 6 0 17 -7 25
-15 14 -13 13 -15 -3 -16 -10 -1 -22 -2 -28 -4 -5 -1 -28 -3 -50 -5 l-40 -3
50 -7 c28 -4 55 -3 62 2 15 12 33 2 33 -18 0 -10 -7 -13 -25 -8 -15 4 -25 2
-25 -4 0 -6 -12 -4 -30 4 -16 9 -34 13 -39 10 -5 -4 -16 3 -24 15 l-15 20 -16
-22 c-8 -13 -19 -20 -22 -16 -4 4 -3 12 2 20 5 7 2 6 -6 -3 -9 -8 -22 -16 -30
-18 -26 -6 -34 -21 -9 -16 l24 5 -25 -11 c-18 -8 -21 -13 -11 -19 9 -6 10 -11
2 -15 -6 -4 -12 -2 -12 3 -1 6 -2 16 -3 21 0 6 -4 10 -8 10 -7 0 -10 -5 -7
-12 2 -7 10 -55 11 -70 1 -10 9 -19 18 -19 37 -3 57 -7 82 -17 15 -6 36 -9 48
-7 11 2 18 1 16 -4 -3 -4 29 -16 69 -26 47 -11 82 -27 96 -41 l22 -23 -27 -12
c-23 -11 -39 -9 -104 10 -227 68 -372 95 -387 71 -4 -7 -9 -38 -11 -69 -1 -31
-3 -58 -3 -60 -1 -2 -7 2 -15 8 -10 8 -16 9 -21 1 -3 -5 1 -10 9 -10 18 0 23
-8 30 -45 3 -16 11 -32 18 -36 9 -6 9 -11 -1 -23 -8 -9 -9 -16 -4 -16 5 0 10
-7 10 -15 0 -8 -3 -13 -5 -10 -3 3 -12 -1 -21 -7 -13 -10 -14 -10 -3 2 19 22
14 32 -9 19 -17 -9 -20 -8 -17 3 3 7 9 13 14 13 17 0 34 16 28 26 -4 6 -11 6
-20 -2 -12 -10 -13 -9 -7 6 5 14 3 17 -9 12 -10 -3 -19 0 -22 8 -8 23 14 29
30 9 13 -17 13 -17 3 7 -13 32 -54 29 -46 -2 3 -11 1 -22 -4 -25 -14 -8 1 -26
17 -20 11 4 11 0 -2 -19 -12 -18 -13 -25 -4 -25 10 0 10 -3 1 -14 -8 -10 -9
-16 -1 -21 5 -3 10 -1 10 4 0 6 5 11 12 11 6 0 3 -9 -7 -20 -11 -12 -13 -20
-6 -20 7 0 9 -5 5 -12 -5 -8 0 -9 14 -6 13 4 20 2 16 -3 -3 -6 -13 -9 -22 -7
-10 1 -23 -1 -30 -6 -11 -7 -12 -4 -5 10 15 31 -1 79 -23 70 -8 -3 -14 0 -14
6 0 7 -5 6 -15 -2 -11 -9 -12 -17 -4 -31 5 -11 7 -23 4 -28 -3 -5 1 -12 7 -14
10 -4 9 -6 -1 -6 -11 -1 -11 -4 -1 -16 10 -12 10 -19 2 -27 -7 -7 -12 -8 -12
-3 0 4 -10 0 -22 -11 -19 -15 -20 -16 -9 -1 7 9 10 17 6 17 -4 0 0 11 9 24 12
18 12 26 3 29 -9 4 -9 6 1 6 10 1 9 5 -3 17 -9 9 -19 13 -23 10 -3 -4 0 -11 8
-16 13 -9 13 -10 0 -10 -12 0 -12 -2 -2 -9 10 -6 10 -10 -1 -20 -12 -9 -15 -9
-14 1 1 34 -4 61 -10 54 -11 -11 -12 -36 -1 -36 6 0 4 -7 -3 -17 -16 -19 -16
-23 3 -34 10 -7 9 -9 -4 -9 -9 0 -20 -4 -23 -10 -3 -5 0 -7 7 -5 9 4 14 -3 15
-17 2 -17 -7 -27 -30 -38 -28 -13 -32 -20 -33 -57 -1 -24 3 -43 9 -43 5 0 5
-6 -2 -13 -6 -8 -7 -18 -3 -22 4 -5 2 -5 -4 -2 -6 4 -10 18 -9 32 2 14 -1 27
-6 31 -5 3 -6 10 -3 16 5 7 0 9 -14 6 -12 -4 -23 0 -26 8 -6 15 9 28 22 20 5
-3 9 1 9 9 0 9 -8 13 -21 11 -14 -2 -21 -11 -21 -24 0 -12 -5 -21 -10 -19 -6
1 -9 6 -7 10 1 5 -2 6 -8 2 -7 -4 -3 -16 10 -32 26 -33 25 -35 -8 -60 -27 -20
-28 -20 -29 -2 -1 11 2 17 8 14 5 -3 17 -1 26 4 11 6 13 11 5 11 -7 0 -10 5
-6 12 5 7 1 9 -13 6 -16 -4 -19 -1 -17 21 2 17 1 19 -2 6 -4 -11 -10 -24 -14
-30 -4 -5 -6 -19 -4 -30 1 -10 -1 -24 -6 -30 -5 -6 -5 -17 0 -25 15 -23 12
-34 -5 -20 -8 7 -12 17 -8 23 4 6 0 8 -10 4 -10 -3 -17 -2 -17 4 0 5 6 12 13
15 15 5 19 34 5 34 -4 0 -8 -7 -8 -17 0 -13 -4 -11 -20 7 -22 26 -24 23 -11
-13 6 -14 7 -28 3 -31 -15 -16 -9 -35 10 -33 26 3 35 -18 12 -27 -14 -5 -15
-4 -4 9 17 20 1 19 -21 -1 -14 -12 -16 -21 -9 -34 7 -13 5 -21 -5 -30 -7 -6
-11 -18 -8 -26 3 -8 0 -14 -7 -14 -6 0 -9 4 -6 9 9 14 -37 21 -53 8 -12 -9
-13 -9 -7 1 9 14 -3 16 -24 2 -11 -7 -11 -10 -2 -10 7 0 10 -5 6 -11 -5 -8 -9
-8 -14 1 -4 7 -13 9 -19 6 -6 -4 -11 -2 -11 3 0 6 6 11 13 11 7 0 22 7 33 16
18 15 18 15 0 10 -14 -5 -16 -3 -8 6 6 7 10 17 10 21 0 5 3 11 6 15 3 3 6 0 6
-7 0 -7 5 -9 11 -6 7 5 4 13 -8 25 -21 21 -35 17 -26 -8 5 -16 5 -16 -8 0 -13
15 -15 16 -29 0 -13 -14 -12 -15 2 -9 10 3 22 -1 30 -10 11 -14 10 -16 -9 -11
-20 5 -21 4 -12 -14 7 -13 7 -18 1 -14 -6 3 -27 -10 -46 -30 -31 -32 -38 -35
-52 -23 -14 11 -19 10 -35 -10 -16 -19 -17 -26 -7 -39 11 -13 10 -15 -4 -9
-11 4 -22 -2 -33 -19 -13 -21 -14 -25 -1 -30 12 -5 12 -8 -2 -23 -12 -12 -21
-15 -29 -8 -19 14 -28 -20 -12 -40 8 -10 9 -14 2 -10 -6 4 -14 3 -18 -3 -3 -5
-1 -10 4 -10 6 0 11 -5 11 -11 0 -5 -4 -7 -10 -4 -5 3 -10 -1 -10 -10 0 -18
59 -77 71 -70 4 3 9 -1 12 -8 6 -17 103 -65 175 -87 48 -15 52 -18 28 -22 -14
-3 -29 -1 -32 3 -8 13 -53 6 -59 -9 -3 -7 -9 -11 -14 -8 -5 3 -11 -4 -15 -17
-3 -12 -1 -24 5 -26 5 -1 3 -8 -6 -15 -15 -10 -13 -13 12 -25 15 -7 40 -20 54
-27 14 -7 28 -11 31 -8 3 2 11 -2 18 -11 15 -18 44 -21 34 -3 -4 7 4 3 17 -8
24 -22 35 -22 76 -2 16 8 26 8 36 0 9 -8 17 -8 24 -1 5 5 25 11 44 12 19 1 37
6 41 11 4 6 13 4 22 -3 13 -11 26 -10 78 9 35 13 68 26 73 30 6 3 24 7 40 8
60 3 125 24 125 39 0 9 6 13 15 9 28 -11 138 22 157 46 10 13 18 17 18 11 0
-18 20 -16 20 1 0 10 16 17 48 22 65 9 132 40 132 62 0 13 2 14 9 3 13 -20 63
0 79 32 13 27 32 37 32 17 0 -5 7 -10 16 -10 8 0 13 4 10 9 -4 5 13 25 36 45
32 27 44 33 55 25 10 -9 12 -5 7 21 -6 28 -4 32 12 28 12 -2 18 -10 16 -22 -3
-17 -1 -17 24 3 15 11 33 21 40 21 8 0 11 6 8 15 -8 20 25 32 36 14 7 -11 13
-10 29 5 l21 19 -26 14 c-19 9 -30 10 -40 3 -9 -8 -15 -7 -21 5 -9 15 -13 14
-46 -5 -20 -12 -37 -26 -37 -31 0 -5 -14 -23 -30 -41 -28 -29 -31 -30 -48 -15
-11 10 -22 13 -28 8 -5 -5 -18 -11 -29 -13 -11 -2 -21 -9 -21 -16 -1 -6 -2
-17 -3 -22 -1 -7 -8 -7 -22 1 -12 6 -17 14 -13 19 5 4 61 34 124 67 205 107
355 203 550 352 172 130 377 326 410 391 11 21 23 40 28 42 4 1 34 37 67 78
70 88 257 276 520 522 288 268 428 407 475 471 55 77 91 157 88 198 -2 37 -21
73 -32 62 -3 -4 -15 -7 -26 -8 -11 -1 -18 1 -15 3 3 3 -4 12 -16 20 -18 13
-24 11 -61 -15 -23 -15 -66 -50 -97 -78 l-55 -50 41 55 c23 30 65 75 93 99 74
63 110 101 110 114 -1 7 -5 6 -13 -3 -7 -9 -43 -41 -82 -72 -109 -89 -139
-118 -196 -193 -78 -104 -92 -113 -29 -20 15 22 28 43 29 47 3 12 44 60 103
120 59 60 63 67 25 46 -33 -18 -45 -18 -50 2 -3 13 -11 17 -26 13 -12 -3 -21
-1 -22 3 -7 58 -5 88 11 139 11 33 21 81 22 107 2 27 7 48 11 48 5 0 1 7 -7
16 -9 8 -16 21 -16 27 0 8 3 8 8 2 15 -21 75 -69 67 -55 -5 10 -5 12 3 5 5 -5
19 -26 29 -45 18 -32 63 -55 63 -32 0 15 -79 129 -112 162 -16 17 -25 30 -19
30 24 0 -19 58 -86 116 -44 39 -62 50 -50 32 27 -42 20 -46 -13 -8 l-31 35 5
-42z m146 -98 c13 -14 21 -25 18 -25 -2 0 -15 11 -28 25 -13 14 -21 25 -18 25
2 0 15 -11 28 -25z m-45 -153 c-19 -66 -103 -242 -116 -242 -8 0 -2 26 11 45
21 30 91 231 87 251 -2 13 -1 21 3 19 4 -3 11 5 15 18 17 48 17 -32 0 -91z
m-35 3 c-16 -47 -23 -40 -8 8 6 20 13 35 16 33 2 -3 -1 -21 -8 -41z m-51 -124
c-12 -29 -23 -50 -25 -48 -2 2 6 27 18 55 12 28 23 50 26 48 2 -2 -7 -27 -19
-55z m-214 30 c-3 -6 -11 -11 -16 -11 -5 0 -4 6 3 14 14 16 24 13 13 -3z m30
-11 c3 -5 1 -10 -4 -10 -6 0 -11 5 -11 10 0 6 2 10 4 10 3 0 8 -4 11 -10z
m-135 -87 c0 -7 -5 -13 -12 -13 -6 0 -3 -10 8 -22 l19 -23 -22 19 c-13 10 -20
23 -17 28 3 5 -2 18 -12 29 -18 20 -18 21 9 8 15 -7 27 -18 27 -26z m-59 4
c-8 -8 -6 -17 7 -31 17 -21 17 -21 -4 -3 -18 15 -23 15 -32 4 -7 -8 -10 -17
-7 -20 3 -4 2 -5 -1 -3 -3 2 -5 7 -4 11 1 4 -9 15 -21 26 -12 10 -18 19 -14
19 5 0 16 -7 25 -15 15 -14 18 -14 30 0 10 12 10 15 -1 15 -11 0 -11 2 1 9 18
12 35 2 21 -12z m162 -5 c4 9 6 10 6 1 1 -14 -33 -35 -42 -27 -3 3 -3 12 0 20
4 11 9 12 18 4 9 -8 14 -7 18 2z m168 -35 c-10 -9 -11 -8 -5 6 3 10 9 15 12
12 3 -3 0 -11 -7 -18z m-466 -17 c3 -6 -1 -7 -9 -4 -18 7 -21 14 -7 14 6 0 13
-4 16 -10z m55 -10 c0 -5 -2 -10 -4 -10 -3 0 -8 5 -11 10 -3 6 -1 10 4 10 6 0
11 -4 11 -10z m60 -15 c11 -13 10 -14 -4 -9 -9 3 -16 10 -16 15 0 13 6 11 20
-6z m-440 -15 c0 -5 -7 -10 -16 -10 -8 0 -12 5 -9 10 3 6 10 10 16 10 5 0 9
-4 9 -10z m495 0 c3 -5 1 -10 -4 -10 -6 0 -11 5 -11 10 0 6 2 10 4 10 3 0 8
-4 11 -10z m-575 -60 c0 -5 -4 -10 -10 -10 -5 0 -10 5 -10 10 0 6 5 10 10 10
6 0 10 -4 10 -10z m468 -82 c102 -69 183 -144 208 -190 35 -69 30 -67 -118 45
-35 27 -86 63 -115 80 -61 38 -79 62 -62 83 17 21 35 17 87 -18z m-711 -150
c-3 -8 -6 -5 -6 6 -1 11 2 17 5 13 3 -3 4 -12 1 -19z m-457 -579 c0 -5 -7 -9
-15 -9 -15 0 -20 12 -9 23 8 8 24 -1 24 -14z m-496 -318 c3 -5 -1 -11 -9 -14
-9 -4 -12 -1 -8 9 6 16 10 17 17 5z m43 -23 c0 -13 -1 -17 -4 -10 -3 6 -9 10
-14 6 -10 -6 -12 9 -2 19 12 13 19 7 20 -15z m-219 -110 c5 -49 12 -73 21 -76
20 -7 11 -21 -21 -37 -24 -12 -28 -12 -15 -2 18 15 24 33 7 22 -6 -4 -7 1 -3
11 5 13 3 16 -10 11 -9 -3 -18 -2 -18 3 -6 41 -2 56 16 67 11 6 20 11 21 12 0
1 1 -5 2 -11z m92 -41 c0 -2 -12 -14 -27 -28 l-28 -24 24 28 c23 25 31 32 31
24z m-10 -51 c0 -2 -7 -7 -16 -10 -8 -3 -12 -2 -9 4 6 10 25 14 25 6z m-66
-51 c-28 -22 -40 -18 -13 4 13 11 26 17 28 15 3 -2 -4 -11 -15 -19z m36 -38
c0 -2 -10 -12 -22 -23 l-23 -19 19 23 c18 21 26 27 26 19z m20 -24 c0 -5 -5
-15 -10 -23 -7 -12 -9 -10 -7 8 1 19 17 33 17 15z m-120 -47 c0 -2 -8 -10 -17
-17 -16 -13 -17 -12 -4 4 13 16 21 21 21 13z m120 0 c0 -2 -8 -10 -17 -17 -16
-13 -17 -12 -4 4 13 16 21 21 21 13z m-83 -21 c0 -8 -3 -13 -5 -10 -3 3 -12
-1 -20 -8 -13 -10 -14 -9 -3 11 13 25 28 29 28 7z m-124 -10 c-3 -9 -8 -14
-10 -11 -3 3 -2 9 2 15 9 16 15 13 8 -4z m107 -29 c0 -2 -8 -10 -17 -17 -16
-13 -17 -12 -4 4 13 16 21 21 21 13z m-51 -42 c-6 -8 -17 -14 -23 -14 -6 0 -5
4 3 9 7 5 11 14 7 20 -5 7 -1 9 9 5 12 -5 13 -9 4 -20z m-30 12 c-2 -2 -15 -9
-29 -16 -23 -12 -24 -12 -11 3 7 10 20 17 29 17 8 0 13 -2 11 -4z m42 -49
c-10 -9 -11 -8 -5 6 3 10 9 15 12 12 3 -3 0 -11 -7 -18z m-88 -2 c4 -8 1 -17
-5 -21 -6 -4 -8 -3 -4 4 3 6 -2 15 -11 21 -16 9 -16 10 -2 11 9 0 19 -7 22
-15z m50 -10 c-7 -21 -12 -19 -10 4 0 11 5 18 9 15 4 -3 5 -11 1 -19z m42 -15
c-3 -5 -12 -10 -18 -10 -7 0 -6 4 3 10 19 12 23 12 15 0z m-115 -4 c0 -2 -7
-7 -16 -10 -8 -3 -12 -2 -9 4 6 10 25 14 25 6z m-55 -36 c2 -12 2 -20 -2 -16
-3 3 -13 0 -22 -6 -14 -11 -14 -10 0 7 9 11 14 27 11 35 -2 8 -2 12 2 9 4 -4
9 -17 11 -29z m85 27 c0 -2 -10 -12 -22 -23 l-23 -19 19 23 c18 21 26 27 26
19z m-115 -17 c-3 -5 -11 -10 -16 -10 -6 0 -7 5 -4 10 3 6 11 10 16 10 6 0 7
-4 4 -10z m126 -23 c-10 -9 -11 -8 -5 6 3 10 9 15 12 12 3 -3 0 -11 -7 -18z
m-111 -31 c0 -2 -8 -10 -17 -17 -16 -13 -17 -12 -4 4 13 16 21 21 21 13z m-87
-31 c-3 -9 -8 -14 -10 -11 -3 3 -2 9 2 15 9 16 15 13 8 -4z m-28 -48 c6 -5 3
-7 -6 -4 -9 3 -22 0 -29 -6 -10 -10 -10 -7 0 11 6 13 15 20 18 15 4 -4 12 -12
17 -16z m-11 -51 c-3 -8 -13 -17 -22 -21 -13 -5 -13 -2 3 15 21 24 26 25 19 6z
m-54 -36 c0 -4 -8 -14 -17 -21 -16 -13 -17 -12 -4 4 12 16 9 22 -12 18 -5 -1
-6 3 -2 8 6 11 35 4 35 -9z m40 -4 c0 -2 -8 -10 -17 -17 -16 -13 -17 -12 -4 4
13 16 21 21 21 13z m-80 -20 c0 -2 -8 -10 -17 -17 -16 -13 -17 -12 -4 4 13 16
21 21 21 13z m27 -31 c0 -8 -4 -12 -9 -9 -5 3 -6 10 -3 15 9 13 12 11 12 -6z
m-76 -48 c-10 -9 -11 -8 -5 6 3 10 9 15 12 12 3 -3 0 -11 -7 -18z m-71 -3 c0
-2 -13 -10 -30 -19 -26 -13 -29 -13 -24 0 3 8 11 13 17 12 7 -1 11 3 10 10 -2
7 4 10 12 7 8 -4 15 -8 15 -10z m-190 -14 c-6 -11 -13 -20 -16 -20 -2 0 0 9 6
20 6 11 13 20 16 20 2 0 0 -9 -6 -20z m110 16 c0 -2 -8 -10 -17 -17 -16 -13
-17 -12 -4 4 13 16 21 21 21 13z m240 0 c0 -2 -8 -10 -17 -17 -16 -13 -17 -12
-4 4 13 16 21 21 21 13z m-317 -33 c-3 -7 -9 -10 -14 -7 -14 8 -11 21 5 21 8
0 12 -6 9 -14z m147 -1 c0 -4 -10 -13 -22 -21 -23 -14 -23 -14 -4 8 20 22 26
25 26 13z m-55 -22 c3 -6 -1 -7 -9 -4 -18 7 -21 14 -7 14 6 0 13 -4 16 -10z
m-142 -27 c-3 -7 -6 -13 -8 -13 -2 0 -5 6 -8 13 -3 8 1 14 8 14 7 0 11 -6 8
-14z m1498 -11 c-7 -14 -17 -18 -31 -15 -23 6 -17 21 14 33 27 10 30 7 17 -18z
m-1478 3 c-3 -9 -8 -14 -10 -11 -3 3 -2 9 2 15 9 16 15 13 8 -4z m112 6 c3 -5
2 -12 -3 -15 -5 -3 -9 1 -9 9 0 17 3 19 12 6z m42 -27 c-3 -3 -12 -4 -19 -1
-8 3 -5 6 6 6 11 1 17 -2 13 -5z m-188 -46 c-5 -10 -12 -18 -15 -18 -3 0 -2 5
1 10 8 13 -8 13 -22 -1 -8 -8 -13 -7 -18 2 -5 8 -4 10 4 5 6 -4 13 -1 16 6 3
8 14 14 24 14 16 0 17 -4 10 -18z m1361 -44 c0 -8 -7 -14 -15 -14 -8 0 -15 9
-15 20 0 13 5 18 15 14 8 -4 15 -12 15 -20z m-155 -10 c-9 -9 -19 -13 -23 -10
-3 4 0 11 8 16 24 15 33 11 15 -6z m-43 -34 c-2 -18 -9 -29 -16 -27 -6 3 -10
10 -8 16 3 17 -15 13 -22 -5 -3 -9 -12 -14 -20 -11 -8 3 -16 -2 -19 -14 -5
-20 -26 -22 -39 -4 -5 6 -8 5 -8 -3 0 -7 -8 -12 -17 -11 -10 1 -26 -1 -36 -6
-10 -4 -21 -5 -24 -1 -3 3 7 11 23 16 16 6 63 26 104 44 41 19 78 34 81 35 3
1 4 -13 1 -29z m33 1 c3 -5 1 -12 -5 -16 -5 -3 -10 1 -10 9 0 18 6 21 15 7z
m55 -1 c0 -5 -4 -10 -10 -10 -5 0 -10 5 -10 10 0 6 5 10 10 10 6 0 10 -4 10
-10z m-216 -78 c2 -4 1 -14 -3 -21 -6 -9 -10 -7 -14 8 -5 20 7 29 17 13z m-94
-32 c0 -5 -4 -10 -10 -10 -5 0 -10 5 -10 10 0 6 5 10 10 10 6 0 10 -4 10 -10z
m-145 -9 c-6 -5 -26 -12 -45 -15 l-35 -6 30 14 c34 16 64 21 50 7z m90 -1 c3
-5 1 -10 -4 -10 -6 0 -11 5 -11 10 0 6 2 10 4 10 3 0 8 -4 11 -10z m-35 -15
c0 -8 -4 -15 -9 -15 -13 0 -22 16 -14 24 11 11 23 6 23 -9z m-140 -5 c0 -5
-12 -10 -27 -9 -25 0 -26 1 -8 9 27 12 35 12 35 0z m-55 -20 c3 -5 -3 -10 -14
-10 -12 0 -21 -4 -21 -10 0 -14 -37 -12 -44 3 -4 6 -4 2 -2 -10 3 -17 -1 -23
-15 -23 -10 0 -19 -4 -19 -9 0 -17 -62 -22 -79 -6 -17 15 -60 10 -72 -7 -3 -5
-14 -2 -23 7 -9 10 -20 15 -23 12 -3 -4 -17 3 -31 13 -13 11 -32 20 -41 20 -9
0 -23 5 -31 11 -11 8 16 9 95 6 61 -2 142 -1 180 3 110 11 133 11 140 0z m15
-42 c0 -16 -3 -19 -11 -11 -6 6 -8 16 -5 22 11 17 16 13 16 -11z m-80 -28 c0
-5 -5 -10 -11 -10 -5 0 -7 5 -4 10 3 6 8 10 11 10 2 0 4 -4 4 -10z"/>
<path d="M928 1515 c-3 -6 2 -18 11 -27 16 -16 17 -16 17 2 0 10 -3 17 -7 14
-4 -2 -9 1 -11 8 -3 7 -7 8 -10 3z"/>
<path d="M630 329 c0 -5 5 -7 10 -4 6 3 10 8 10 11 0 2 -4 4 -10 4 -5 0 -10
-5 -10 -11z"/>
<path d="M1767 3363 c-2 -5 -5 -24 -5 -44 -1 -36 0 -37 43 -44 57 -8 66 -2 63
42 -2 26 -8 37 -26 44 -28 11 -69 12 -75 2z m80 -49 c-3 -3 -12 -4 -19 -1 -8
3 -5 6 6 6 11 1 17 -2 13 -5z"/>
<path d="M3139 3358 c0 -2 -2 -10 -4 -19 -1 -9 -6 -25 -9 -36 -4 -12 -1 -25 7
-31 10 -9 14 -8 14 3 0 8 -4 12 -9 9 -4 -3 -8 0 -8 6 0 7 7 10 15 7 8 -4 17
-2 20 4 4 5 -1 12 -9 15 -9 3 -13 10 -10 16 3 5 17 0 30 -13 31 -29 31 -19 -1
15 -21 23 -33 31 -36 24z"/>
<path d="M3087 3279 c7 -7 15 -10 18 -7 3 3 -2 9 -12 12 -14 6 -15 5 -6 -5z"/>
<path d="M3160 3281 c0 -6 5 -13 10 -16 6 -3 10 1 10 9 0 9 -4 16 -10 16 -5 0
-10 -4 -10 -9z"/>
<path d="M3145 3230 c5 -15 2 -20 -14 -20 -11 0 -25 8 -30 18 -6 9 -11 11 -11
5 0 -18 41 -63 52 -57 4 3 6 9 3 14 -3 5 -1 11 5 15 13 8 13 45 -1 45 -6 0 -8
-9 -4 -20z"/>
<path d="M3064 3161 c-11 -19 -23 -27 -33 -24 -13 4 -13 3 -2 -5 16 -12 -3
-27 -21 -16 -7 4 -8 3 -4 -4 4 -7 15 -12 25 -12 9 0 22 -5 29 -12 8 -8 12 -9
12 -1 0 6 -6 13 -12 16 -7 2 -10 8 -5 13 4 4 15 -2 23 -15 l16 -22 18 33 c13
25 15 38 7 55 -14 31 -32 29 -53 -6z m16 -21 c0 -5 -5 -10 -11 -10 -5 0 -7 5
-4 10 3 6 8 10 11 10 2 0 4 -4 4 -10z"/>
<path d="M2986 3095 c4 -8 11 -15 16 -15 6 0 5 6 -2 15 -7 8 -14 15 -16 15 -2
0 -1 -7 2 -15z"/>
<path d="M2746 3025 c-3 -9 0 -15 9 -15 16 0 20 16 6 24 -5 3 -11 -1 -15 -9z"/>
<path d="M3530 3030 c0 -15 31 -60 41 -60 10 0 -23 69 -33 70 -5 0 -8 -5 -8
-10z"/>
<path d="M2868 3023 c7 -3 16 -2 19 1 4 3 -2 6 -13 5 -11 0 -14 -3 -6 -6z"/>
<path d="M1845 2790 c11 -5 27 -9 35 -9 9 0 8 4 -5 9 -11 5 -27 9 -35 9 -9 0
-8 -4 5 -9z"/>
<path d="M2230 2636 c0 -3 9 -10 20 -16 11 -6 20 -8 20 -6 0 3 -9 10 -20 16
-11 6 -20 8 -20 6z"/>
<path d="M2300 2598 c14 -16 111 -76 108 -67 -2 6 -28 24 -58 41 -30 17 -53
29 -50 26z"/>
<path d="M1385 2353 c-38 -51 -39 -54 -9 -43 29 11 53 37 54 58 0 21 -24 13
-45 -15z"/>
<path d="M1580 2176 c0 -2 8 -10 18 -17 15 -13 16 -12 3 4 -13 16 -21 21 -21
13z"/>
<path d="M1300 2135 c-7 -9 -34 -29 -61 -47 -27 -17 -60 -49 -74 -70 l-26 -40
23 7 c52 16 73 33 114 98 42 64 51 85 24 52z"/>
<path d="M3616 1853 c-6 -14 -5 -15 5 -6 7 7 10 15 7 18 -3 3 -9 -2 -12 -12z"/>
<path d="M1072 1815 c-33 -25 -67 -45 -75 -45 -15 0 -77 -66 -77 -82 0 -5 7
-8 15 -8 8 0 15 -4 15 -10 0 -15 36 -12 50 5 7 8 17 12 23 8 6 -4 8 0 5 8 -9
22 76 131 91 116 8 -8 11 -7 11 3 0 7 7 22 17 32 32 36 -13 20 -75 -27z"/>
<path d="M3558 1812 c-16 -9 -28 -20 -28 -25 0 -4 14 2 30 15 26 19 36 29 28
28 -2 0 -15 -8 -30 -18z"/>
<path d="M3300 1632 c-165 -109 -307 -214 -365 -267 -36 -33 -25 -27 40 23 50
38 142 104 205 147 155 105 240 166 240 171 0 6 3 8 -120 -74z"/>
<path d="M1045 1670 c-4 -6 -11 -8 -16 -5 -5 4 -9 1 -9 -4 0 -16 16 -13 30 4
7 8 10 15 7 15 -3 0 -9 -5 -12 -10z"/>
<path d="M790 1352 c-17 -8 -25 -32 -11 -32 6 0 13 5 16 10 3 6 12 10 18 10 7
0 6 -4 -3 -10 -13 -8 -12 -10 3 -10 19 0 20 1 11 24 -7 17 -11 18 -34 8z"/>
<path d="M680 1231 c0 -6 4 -13 10 -16 6 -3 7 1 4 9 -7 18 -14 21 -14 7z"/>
<path d="M659 1200 c-7 -35 -4 -48 7 -38 3 4 4 21 2 40 l-3 33 -6 -35z"/>
<path d="M766 1202 c-3 -5 1 -9 9 -9 8 0 15 4 15 9 0 4 -4 8 -9 8 -6 0 -12 -4
-15 -8z"/>
<path d="M680 1189 c0 -5 5 -7 10 -4 6 3 10 8 10 11 0 2 -4 4 -10 4 -5 0 -10
-5 -10 -11z"/>
<path d="M620 1149 c0 -5 5 -7 10 -4 6 3 10 8 10 11 0 2 -4 4 -10 4 -5 0 -10
-5 -10 -11z"/>
<path d="M597 1143 c-4 -3 -7 -11 -7 -17 0 -6 5 -5 12 2 6 6 9 14 7 17 -3 3
-9 2 -12 -2z"/>
<path d="M650 1135 c-8 -10 -8 -15 1 -21 7 -4 15 -2 17 4 2 7 8 10 12 7 5 -3
11 -1 14 4 9 14 -32 20 -44 6z"/>
<path d="M397 945 c-4 -8 -2 -17 3 -20 6 -4 10 3 10 14 0 25 -6 27 -13 6z"/>
<path d="M356 941 c-4 -5 -2 -12 3 -15 5 -4 12 -2 15 3 4 5 2 12 -3 15 -5 4
-12 2 -15 -3z"/>
<path d="M386 910 c-2 -3 -6 -22 -10 -42 -6 -31 -4 -37 14 -43 26 -8 39 1 37
25 -1 23 -8 25 -26 8 -10 -11 -12 -10 -9 2 2 8 9 18 17 21 23 9 22 38 -1 36
-11 -1 -21 -4 -22 -7z m29 -70 c-3 -5 -12 -10 -18 -10 -7 0 -6 4 3 10 19 12
23 12 15 0z"/>
<path d="M259 843 c-1 -5 -1 -12 0 -17 1 -5 -4 -6 -12 -3 -7 3 -23 -3 -36 -12
-20 -15 -21 -19 -7 -30 13 -11 21 -7 50 22 19 19 32 38 29 41 -9 8 -23 7 -24
-1z"/>
<path d="M2375 689 c-47 -47 -236 -185 -221 -161 5 8 2 10 -8 6 -9 -3 -14 -11
-13 -17 1 -7 -4 -11 -10 -10 -14 3 -95 -27 -103 -37 -8 -11 -72 -40 -87 -40
-7 0 -13 -4 -13 -8 0 -9 -70 -42 -88 -42 -7 0 -12 -4 -12 -8 0 -5 -19 -16 -42
-26 -24 -10 -54 -22 -68 -28 -14 -6 -37 -17 -51 -24 -14 -7 -29 -11 -32 -8 -3
4 -13 -1 -23 -10 -10 -10 -24 -14 -36 -10 -14 4 -18 2 -14 -5 7 -10 -11 -15
-40 -12 -7 1 -15 -6 -18 -15 -4 -12 -13 -14 -31 -10 -18 5 -24 3 -23 -6 2 -8
-7 -13 -22 -13 -14 0 -30 -6 -36 -14 -6 -8 -17 -12 -25 -9 -8 3 -20 -2 -27 -9
-8 -8 -22 -11 -32 -8 -10 3 -21 1 -25 -5 -3 -5 -17 -10 -30 -10 -13 0 -26 -4
-29 -9 -6 -9 -42 -17 -121 -26 -27 -4 -55 -10 -61 -16 -6 -5 -33 -10 -60 -12
-27 -2 -55 -6 -61 -10 -7 -5 -21 -4 -30 1 -10 5 -26 6 -37 3 -10 -4 -35 -6
-55 -4 -33 3 -128 7 -376 17 -55 2 -100 5 -100 6 0 1 -9 4 -20 5 -11 1 -31 5
-45 9 -44 12 25 -23 89 -45 280 -98 666 -67 1086 86 452 164 719 305 924 485
28 25 51 49 51 54 0 5 7 18 17 28 35 38 5 16 -42 -33z"/>
<path d="M100 649 c0 -5 5 -7 10 -4 6 3 10 8 10 11 0 2 -4 4 -10 4 -5 0 -10
-5 -10 -11z"/>
</g>
</svg>
