<?xml version="1.0" standalone="no"?>
<!DOCTYPE svg PUBLIC "-//W3C//DTD SVG 20010904//EN"
 "http://www.w3.org/TR/2001/REC-SVG-20010904/DTD/svg10.dtd">
<svg version="1.0" xmlns="http://www.w3.org/2000/svg"
 width="800.000000pt" height="800.000000pt" viewBox="0 0 800.000000 800.000000"
 preserveAspectRatio="xMidYMid meet">

<g transform="translate(0.000000,800.000000) scale(0.100000,-0.100000)"
fill="#000000" stroke="none">
<path d="M3890 7449 c0 -5 5 -7 10 -4 6 3 10 8 10 11 0 2 -4 4 -10 4 -5 0 -10
-5 -10 -11z"/>
<path d="M3924 7445 c3 -9 -1 -15 -11 -15 -13 0 -13 -3 -3 -15 9 -10 9 -15 1
-15 -6 0 -11 -5 -11 -11 0 -5 4 -8 9 -4 5 3 12 1 16 -5 3 -5 1 -10 -5 -10 -6
0 3 -20 20 -45 19 -28 25 -42 15 -39 -17 7 -21 -11 -4 -22 6 -3 8 -16 5 -27
-3 -13 2 -29 11 -40 16 -17 16 -17 0 -11 -9 3 -17 10 -17 16 0 5 -5 6 -10 3
-8 -5 -7 -11 1 -21 6 -7 9 -20 6 -29 -4 -8 -2 -17 3 -20 5 -3 11 3 13 12 4 17
5 16 6 0 1 -11 -7 -21 -19 -24 -24 -6 -17 -22 8 -18 9 1 11 0 5 -2 -7 -3 -13
-8 -13 -13 0 -5 6 -11 13 -13 7 -3 5 -6 -5 -6 -10 -1 -18 -6 -18 -12 0 -6 7
-9 14 -6 10 4 13 1 9 -9 -3 -7 0 -14 7 -14 6 0 9 -4 5 -10 -3 -5 -12 -7 -20
-4 -8 4 -12 10 -9 15 3 5 0 9 -6 9 -7 0 -10 -7 -6 -15 4 -11 -2 -15 -22 -16
-24 0 -25 -1 -7 -8 11 -5 25 -4 32 1 8 6 15 3 23 -11 7 -14 7 -21 0 -21 -5 0
-10 5 -10 10 0 6 -13 8 -32 5 -40 -7 -49 -15 -17 -15 19 0 21 -2 9 -10 -13 -9
-13 -11 0 -20 13 -8 13 -10 1 -10 -11 0 -9 -4 5 -15 17 -13 17 -14 2 -15 -9 0
-20 -5 -24 -12 -5 -8 -2 -9 10 -5 13 5 17 3 13 -7 -3 -8 -1 -17 6 -19 7 -3 1
-9 -13 -15 -20 -8 -21 -11 -6 -11 15 -1 16 -4 6 -16 -7 -8 -22 -15 -34 -16
-19 0 -19 -1 4 -11 l25 -11 -25 -6 c-17 -5 -21 -9 -12 -15 6 -4 12 -15 12 -24
0 -13 -2 -14 -9 -3 -6 9 -11 -2 -15 -33 -4 -25 -11 -46 -17 -46 -17 0 -51 -41
-45 -55 3 -8 -2 -21 -10 -30 -9 -8 -12 -15 -9 -15 4 0 -2 -16 -14 -36 -24 -40
-26 -60 -8 -68 9 -3 7 -8 -5 -15 -20 -13 -31 -59 -23 -93 6 -25 7 -25 48 -11
49 17 105 13 252 -20 l100 -23 75 38 c215 106 360 170 445 196 45 13 43 41
-11 137 -57 101 -120 174 -212 246 -75 59 -95 78 -133 129 -15 19 -37 46 -49
60 -12 14 -44 61 -70 105 -54 88 -173 221 -189 210 -7 -4 -8 0 -5 10 4 10 2
15 -7 13 -8 -2 -13 3 -11 10 1 8 -2 11 -8 7 -5 -3 -10 -1 -10 4 0 6 -5 11 -11
11 -6 0 -9 -7 -5 -15z"/>
<path d="M3916 7315 c9 -14 19 -24 21 -21 6 6 -20 46 -30 46 -4 0 0 -11 9 -25z"/>
<path d="M3890 7300 c0 -5 5 -10 10 -10 6 0 10 5 10 10 0 6 -4 10 -10 10 -5 0
-10 -4 -10 -10z"/>
<path d="M3930 7250 c0 -5 5 -10 10 -10 6 0 10 5 10 10 0 6 -4 10 -10 10 -5 0
-10 -4 -10 -10z"/>
<path d="M3885 7220 c3 -5 8 -10 11 -10 2 0 4 5 4 10 0 6 -5 10 -11 10 -5 0
-7 -4 -4 -10z"/>
<path d="M3915 7220 c3 -5 8 -10 11 -10 2 0 4 5 4 10 0 6 -5 10 -11 10 -5 0
-7 -4 -4 -10z"/>
<path d="M3920 7170 c0 -5 5 -10 10 -10 6 0 10 5 10 10 0 6 -4 10 -10 10 -5 0
-10 -4 -10 -10z"/>
<path d="M3915 7140 c3 -5 8 -10 11 -10 2 0 4 5 4 10 0 6 -5 10 -11 10 -5 0
-7 -4 -4 -10z"/>
<path d="M3890 7079 c0 -5 5 -7 10 -4 6 3 10 8 10 11 0 2 -4 4 -10 4 -5 0 -10
-5 -10 -11z"/>
<path d="M3910 7060 c0 -5 5 -10 10 -10 6 0 10 5 10 10 0 6 -4 10 -10 10 -5 0
-10 -4 -10 -10z"/>
<path d="M4950 7037 c0 -2 16 -40 35 -85 57 -130 121 -372 145 -543 25 -175
38 -634 22 -774 -5 -49 -5 -93 0 -114 7 -22 6 -36 -1 -40 -5 -4 -13 -38 -16
-76 -15 -165 -37 -346 -51 -424 -9 -46 -13 -96 -10 -112 3 -16 -1 -41 -8 -56
-65 -129 -89 -767 -40 -1058 41 -247 149 -586 194 -608 18 -9 28 -28 40 -77 9
-36 26 -87 38 -114 27 -60 27 -64 2 -41 -33 29 -36 -6 -6 -57 25 -42 26 -42
33 -18 5 21 10 14 30 -45 38 -110 63 -216 63 -268 0 -63 -22 -125 -125 -351
-63 -139 -82 -191 -73 -197 42 -26 511 -22 693 6 312 47 846 198 1058 299 29
13 97 45 151 71 175 81 293 174 394 310 57 78 86 136 123 247 73 223 16 431
-179 656 -78 90 -221 192 -482 343 -169 98 -440 214 -701 299 -164 53 -487
133 -678 168 -105 18 -156 32 -161 42 -34 69 -42 269 -40 1020 1 185 -4 289
-20 425 -11 99 -27 250 -36 335 -19 196 -73 467 -98 493 -6 6 -45 57 -86 112
-94 126 -210 255 -210 232z"/>
<path d="M3555 6347 c-38 -24 -98 -64 -132 -91 -52 -39 -63 -53 -63 -76 0 -16
-4 -39 -9 -52 -4 -13 -11 -44 -15 -69 l-7 -47 63 -45 c35 -24 82 -64 105 -88
l43 -43 15 37 c16 39 30 52 45 42 6 -4 -2 -22 -20 -43 -28 -34 -39 -62 -24
-62 9 0 68 42 81 58 7 8 9 22 4 36 -4 11 -9 104 -10 205 -2 161 0 186 15 202
10 11 12 19 6 19 -7 0 -12 14 -12 30 0 17 -3 30 -7 30 -5 0 -39 -20 -78 -43z
m65 -41 c0 -2 -7 -7 -16 -10 -8 -3 -12 -2 -9 4 6 10 25 14 25 6z m-64 -35 c-3
-5 -16 -11 -28 -14 -22 -6 -22 -5 -4 8 22 17 40 20 32 6z m-86 -51 c-8 -5 -17
-7 -19 -4 -3 3 1 9 9 14 8 5 17 7 19 4 3 -3 -1 -9 -9 -14z m-50 -29 c0 -5 -7
-12 -16 -15 -14 -5 -15 -4 -4 9 14 17 20 19 20 6z"/>
<path d="M4187 5990 c18 -4 41 -14 50 -21 15 -11 15 -10 -1 9 -13 15 -29 22
-50 21 l-31 -1 32 -8z"/>
<path d="M4180 5974 c0 -5 7 -18 15 -28 8 -11 15 -39 15 -63 0 -43 12 -57 24
-27 14 36 5 71 -24 99 -16 16 -30 25 -30 19z"/>
<path d="M3070 5816 c0 -32 -16 -42 -29 -19 -10 17 -10 17 -11 -2 0 -11 4 -26
9 -34 8 -13 12 -13 27 0 11 9 15 9 10 2 -4 -7 -3 -13 3 -13 12 0 34 66 26 80
-12 20 -35 10 -35 -14z"/>
<path d="M4121 5744 c19 -18 86 -29 122 -20 14 3 28 14 31 23 6 15 5 16 -5 6
-15 -15 -85 -17 -94 -3 -3 6 -20 10 -38 10 -28 0 -30 -1 -16 -16z"/>
<path d="M3215 5733 c2 -10 4 -20 4 -23 1 -3 5 2 10 10 10 15 6 30 -9 30 -4 0
-7 -8 -5 -17z"/>
<path d="M5488 5655 c-4 -27 -9 -90 -12 -140 l-5 -90 15 53 c9 34 14 85 12
140 -3 80 -4 83 -10 37z"/>
<path d="M3322 5658 c6 -17 36 -34 45 -24 4 4 -1 14 -11 22 -24 17 -39 18 -34
2z"/>
<path d="M4372 5214 l3 -258 44 -13 c57 -16 122 -7 128 18 3 11 11 19 18 19 7
0 36 18 63 39 66 53 96 114 96 201 0 77 -23 130 -80 180 -53 46 -97 62 -192
68 l-84 5 4 -259z m180 89 c18 3 43 8 56 12 14 5 22 3 22 -4 0 -6 -4 -11 -9
-11 -5 0 -25 -10 -45 -22 -36 -24 -66 -88 -66 -142 0 -21 -4 -24 -27 -22 -49
5 -51 29 -10 89 43 62 46 82 15 98 -34 18 -58 41 -52 50 3 5 23 -5 44 -22 31
-25 45 -30 72 -26z"/>
<path d="M3926 5305 c9 -40 12 -44 32 -43 9 0 31 -5 49 -10 30 -10 43 -7 43 8
0 6 -78 23 -89 20 -2 -1 -12 11 -23 27 l-19 28 7 -30z"/>
<path d="M4140 5310 c-9 -6 -10 -10 -3 -10 6 0 15 5 18 10 8 12 4 12 -15 0z"/>
<path d="M3296 5263 c-11 -28 8 -33 27 -7 17 23 17 24 -1 24 -11 0 -23 -8 -26
-17z"/>
<path d="M3837 5224 c-4 -4 -7 -14 -7 -23 0 -11 3 -12 11 -4 6 6 10 16 7 23
-2 6 -7 8 -11 4z"/>
<path d="M3244 4850 c-50 -22 -53 -31 -53 -172 -1 -85 2 -106 12 -102 8 3 14
10 15 17 1 7 3 26 5 42 2 17 11 53 20 80 9 28 18 65 20 82 2 18 12 42 22 53
22 24 13 24 -41 0z"/>
<path d="M3965 4730 c-4 -6 12 -10 39 -10 25 0 46 4 46 8 0 12 -78 14 -85 2z"/>
<path d="M2825 4400 c-3 -5 1 -10 9 -10 9 0 16 5 16 10 0 6 -4 10 -9 10 -6 0
-13 -4 -16 -10z"/>
<path d="M2570 4037 l-175 -31 -485 2 c-536 3 -649 -4 -942 -58 -257 -47 -275
-55 -430 -194 -106 -95 -132 -135 -182 -289 -71 -220 -56 -439 49 -689 89
-213 259 -425 408 -512 177 -103 477 -122 807 -52 36 8 92 20 125 26 72 15
260 85 407 152 58 27 112 47 118 46 8 -2 25 36 45 97 18 55 74 195 124 310 71
163 101 248 136 380 24 94 76 283 115 420 60 210 110 402 110 420 0 10 -59 2
-230 -28z m-1085 -737 c20 -17 8 -37 -26 -44 -35 -7 -37 -21 -7 -53 l21 -23
-38 -16 c-27 -11 -52 -14 -82 -9 -38 6 -47 3 -89 -29 -26 -20 -63 -40 -83 -44
-161 -38 -152 -33 -194 -119 -16 -35 -47 -83 -68 -107 -22 -24 -39 -55 -39
-68 -1 -12 -7 -34 -15 -48 l-14 -25 -2 25 c-3 52 3 84 23 122 13 24 18 47 14
63 -4 14 1 56 10 94 l17 69 29 -10 c37 -13 89 13 208 103 81 61 111 79 205
121 43 19 106 18 130 -2z"/>
<path d="M3066 3751 c-8 -12 -18 -290 -11 -301 6 -10 107 40 178 88 23 16 68
39 100 52 76 30 61 44 -29 29 -130 -23 -168 1 -159 96 l5 45 -40 0 c-21 0 -41
-4 -44 -9z"/>
<path d="M4010 3706 c0 -24 19 -31 90 -34 67 -2 73 -1 59 13 -18 19 -149 37
-149 21z"/>
<path d="M3900 3620 c0 -5 5 -10 11 -10 5 0 7 5 4 10 -3 6 -8 10 -11 10 -2 0
-4 -4 -4 -10z"/>
<path d="M3840 3609 c0 -5 5 -7 10 -4 6 3 10 8 10 11 0 2 -4 4 -10 4 -5 0 -10
-5 -10 -11z"/>
<path d="M3881 3474 c0 -11 3 -14 6 -6 3 7 2 16 -1 19 -3 4 -6 -2 -5 -13z"/>
<path d="M2923 3105 c37 -19 67 -39 67 -43 0 -4 11 -12 25 -19 20 -9 25 -8 25
2 0 8 9 15 21 17 17 3 18 5 7 20 -8 10 -45 23 -93 33 -44 9 -89 18 -100 21
-11 2 10 -11 48 -31z"/>
<path d="M3087 3123 c-4 -6 0 -19 8 -30 13 -19 19 -20 50 -10 39 12 47 37 13
37 -13 0 -33 3 -44 6 -12 3 -24 2 -27 -3z"/>
<path d="M4020 3046 c-30 -7 -64 -17 -74 -21 -13 -6 -17 -5 -13 2 11 18 -25
25 -42 8 -10 -8 -28 -16 -42 -18 -13 -2 -24 -10 -24 -17 0 -19 63 -34 80 -20
7 6 48 19 90 29 42 10 84 26 93 35 20 20 11 20 -68 2z"/>
<path d="M5235 2830 c-8 -12 46 -110 57 -104 15 10 8 62 -13 88 -22 28 -34 32
-44 16z"/>
<path d="M2870 2630 c0 -12 28 -25 36 -17 3 3 -4 10 -15 17 -15 7 -21 7 -21 0z"/>
<path d="M2959 2590 c24 -11 46 -18 49 -15 5 5 -26 18 -68 29 -14 3 -5 -3 19
-14z"/>
<path d="M3857 2573 c-62 -22 -135 -38 -202 -45 -57 -7 -102 -15 -99 -19 5 -8
88 -2 174 12 69 11 250 70 250 81 0 12 -16 8 -123 -29z"/>
<path d="M3028 2563 c7 -3 16 -2 19 1 4 3 -2 6 -13 5 -11 0 -14 -3 -6 -6z"/>
<path d="M3129 2546 c81 -17 188 -30 179 -21 -6 7 -100 21 -193 30 -47 4 -46
3 14 -9z"/>
<path d="M3341 2521 c-17 -11 143 -20 179 -10 17 5 3 8 -41 8 -37 1 -79 3 -95
6 -16 3 -35 1 -43 -4z"/>
<path d="M5121 2354 c0 -11 3 -14 6 -6 3 7 2 16 -1 19 -3 4 -6 -2 -5 -13z"/>
<path d="M2227 2298 c-21 -67 -39 -150 -34 -154 2 -2 16 41 31 97 28 107 30
147 3 57z"/>
<path d="M3610 433 c-213 -78 -224 -83 -190 -77 51 10 219 67 265 92 57 30 35
26 -75 -15z"/>
</g>
</svg>
