<?xml version="1.0" standalone="no"?>
<!DOCTYPE svg PUBLIC "-//W3C//DTD SVG 20010904//EN"
 "http://www.w3.org/TR/2001/REC-SVG-20010904/DTD/svg10.dtd">
<svg version="1.0" xmlns="http://www.w3.org/2000/svg"
 width="844.000000pt" height="598.000000pt" viewBox="0 0 844.000000 598.000000"
 preserveAspectRatio="xMidYMid meet">

<g transform="translate(0.000000,598.000000) scale(0.100000,-0.100000)"
fill="#000000" stroke="none">
<path d="M6479 5951 c-26 -4 -54 -12 -62 -19 -8 -7 -20 -11 -25 -10 -6 2 -18
-6 -27 -17 -9 -11 -14 -14 -10 -7 9 17 2 15 -24 -7 -12 -11 -21 -28 -19 -38 2
-10 -2 -17 -9 -16 -16 4 -32 -27 -35 -65 -1 -17 -5 -29 -9 -26 -7 4 -20 -40
-24 -76 0 -9 -4 -20 -7 -25 -3 -6 -5 -28 -3 -50 1 -22 -1 -42 -6 -45 -5 -3
-10 -36 -11 -72 -2 -36 -7 -64 -11 -61 -5 3 -7 -1 -6 -8 1 -8 -1 -22 -6 -32
-4 -9 -5 -29 -3 -42 3 -14 2 -25 -2 -25 -4 0 -7 -14 -8 -31 0 -17 -3 -34 -6
-37 -3 -3 2 -11 12 -19 9 -8 12 -12 6 -9 -17 8 -32 -15 -29 -44 1 -14 -1 -29
-5 -35 -4 -5 -10 -22 -14 -37 -3 -16 -11 -28 -16 -28 -6 0 -10 -5 -10 -11 0
-5 4 -8 10 -4 5 3 3 -7 -5 -21 -8 -15 -11 -32 -8 -38 3 -6 0 -6 -7 1 -11 10
-19 6 -42 -17 -15 -17 -30 -30 -33 -30 -3 0 -10 0 -16 0 -6 0 -9 -7 -6 -14 4
-10 1 -13 -7 -10 -7 3 -21 -2 -30 -11 -9 -9 -20 -14 -25 -10 -5 3 -13 0 -17
-6 -5 -8 -3 -9 6 -4 9 6 11 4 6 -4 -5 -7 -15 -10 -23 -7 -9 4 -22 1 -31 -6 -8
-7 -17 -12 -19 -10 -7 5 -63 -32 -63 -43 0 -5 -4 -4 -9 3 -7 11 -13 9 -29 -9
-18 -19 -22 -20 -27 -7 -7 17 -21 18 -44 4 -10 -7 -12 -5 -6 3 4 7 -4 5 -19
-4 -14 -10 -26 -13 -26 -7 0 17 -103 10 -117 -8 -11 -13 -12 -12 -13 5 0 17
-2 17 -10 5 -5 -8 -10 -10 -10 -5 0 6 -15 10 -34 10 -25 0 -32 -3 -25 -12 7
-8 5 -11 -6 -9 -9 1 -20 8 -25 15 -6 11 -9 11 -12 0 -5 -12 -9 -12 -27 -1 -18
10 -22 10 -27 -2 -5 -13 -9 -13 -32 2 -14 9 -23 11 -19 5 5 -8 3 -13 -7 -13
-8 0 -17 6 -19 13 -3 6 -6 3 -7 -8 -1 -18 -1 -19 -11 -2 -5 9 -17 17 -25 17
-9 0 -12 -5 -8 -12 4 -7 -3 -4 -16 7 -13 11 -20 14 -16 7 7 -11 4 -11 -13 0
-18 11 -23 11 -31 -2 -8 -12 -10 -12 -10 -1 0 8 -7 11 -20 8 -11 -3 -22 -1
-25 4 -3 4 -17 4 -31 -1 -16 -7 -23 -7 -19 0 4 6 -5 9 -19 8 -15 -1 -26 -8
-26 -14 0 -18 -27 -37 -35 -24 -4 6 -1 9 6 8 7 -2 14 6 16 17 1 11 0 14 -3 7
-5 -10 -9 -10 -20 -1 -11 9 -15 8 -20 -4 -3 -9 -3 -20 0 -26 4 -5 2 -13 -4
-16 -6 -4 -10 -3 -9 2 1 4 1 17 -1 28 -1 19 -2 19 -9 1 -4 -11 -15 -20 -24
-22 -9 -1 -14 3 -11 11 3 7 1 16 -5 20 -6 3 -11 -1 -11 -9 0 -8 -4 -18 -10
-21 -6 -4 -7 1 -3 12 6 16 5 16 -11 4 -9 -8 -14 -21 -11 -30 5 -13 4 -14 -7
-3 -17 17 -17 36 1 43 9 3 11 8 4 12 -14 9 -55 -31 -47 -45 4 -6 3 -8 -4 -5
-5 4 -8 16 -5 27 4 14 0 20 -11 20 -12 0 -14 -7 -11 -32 l5 -33 -14 30 c-12
23 -15 25 -16 11 0 -20 0 -20 -14 0 -14 19 -15 19 -22 0 -7 -18 -8 -18 -21 0
-12 17 -13 17 -13 0 0 -15 -3 -16 -15 -6 -8 7 -24 10 -34 7 -12 -3 -22 1 -25
9 -3 8 -15 14 -26 14 -14 0 -20 6 -18 18 2 9 -2 16 -9 15 -6 -1 -19 17 -28 40
-9 23 -23 49 -31 58 -7 8 -12 25 -9 37 2 12 0 22 -5 22 -5 0 -6 7 -3 17 5 12
3 14 -7 8 -8 -5 -11 -4 -6 3 9 15 -24 143 -35 136 -5 -3 -6 2 -3 10 15 39 -86
158 -107 125 -7 -11 -9 -10 -9 5 0 17 -6 18 -67 12 -80 -7 -143 -23 -143 -36
0 -6 -3 -9 -7 -9 -21 3 -32 -3 -38 -22 -5 -15 -10 -18 -15 -10 -5 9 -14 4 -31
-16 -42 -50 -44 -49 -100 58 -72 136 -107 166 -189 159 -93 -7 -185 -158 -197
-325 -7 -100 8 -196 52 -346 41 -136 45 -210 15 -269 l-20 -39 20 -11 c11 -6
26 -10 33 -9 31 4 46 -2 41 -16 -4 -10 3 -18 21 -25 22 -8 26 -15 22 -33 -6
-21 -6 -21 8 -3 8 11 15 15 15 9 0 -7 8 -12 18 -12 28 0 94 -17 132 -34 39
-18 29 -22 -16 -8 -16 5 -56 12 -90 14 -74 5 -118 25 -122 54 -3 17 -8 20 -33
16 -17 -2 -36 0 -42 5 -20 15 -57 21 -54 8 1 -6 -7 -11 -18 -12 -38 -2 -43 -4
-48 -24 -4 -14 0 -20 11 -21 15 0 14 -1 -1 -8 -10 -4 -19 -11 -19 -16 -1 -6
-8 -16 -17 -23 -14 -11 -14 -12 0 -7 10 4 16 0 16 -9 0 -8 -5 -12 -11 -9 -6 3
-5 0 2 -8 20 -22 15 -48 -8 -42 -17 4 -20 0 -20 -25 0 -22 -8 -37 -27 -51 -16
-11 -38 -31 -50 -43 -24 -23 -33 -13 -10 11 20 22 -130 7 -155 -16 -39 -35
-67 -122 -49 -152 7 -11 15 -10 44 8 20 12 38 27 41 34 3 9 5 9 5 0 1 -6 -11
-22 -26 -35 -16 -13 -40 -38 -55 -56 -16 -19 -28 -29 -28 -24 0 5 7 15 15 22
42 35 -14 37 -57 2 -52 -42 -108 -98 -108 -109 0 -7 -4 -13 -8 -13 -14 0 -29
-43 -26 -67 2 -13 -1 -23 -6 -23 -7 0 -7 -6 0 -19 7 -14 7 -22 0 -26 -6 -4 -8
-11 -5 -16 4 -5 2 -9 -3 -9 -5 0 -9 -6 -10 -12 0 -7 -3 -22 -6 -33 -2 -11 -5
-28 -5 -38 -1 -14 -6 -17 -23 -12 -23 6 -23 6 -3 -11 12 -10 14 -15 5 -12 -8
3 -21 -1 -28 -9 -8 -7 -18 -10 -24 -7 -12 7 30 54 48 54 8 0 11 6 8 14 -3 7 2
30 10 50 l15 37 -28 -20 c-15 -11 -66 -60 -112 -109 -51 -55 -99 -96 -123
-106 -38 -16 -116 -87 -116 -106 0 -6 -5 -10 -11 -10 -6 0 -8 9 -4 21 5 15 4
19 -4 15 -6 -4 -11 -14 -11 -22 0 -8 -3 -14 -7 -14 -13 0 -32 -49 -22 -56 17
-10 9 -24 -13 -25 -17 -1 -19 -2 -5 -6 19 -5 22 -19 6 -29 -8 -4 -7 -9 2 -15
10 -6 10 -9 2 -9 -7 0 -10 -9 -8 -21 3 -12 2 -19 -2 -16 -3 4 -15 2 -26 -4
-14 -8 -18 -8 -13 0 4 6 2 11 -3 11 -6 0 -11 -6 -11 -12 0 -10 -3 -10 -9 0
-12 19 -192 -149 -368 -342 -61 -67 -74 -77 -87 -67 -11 10 -19 10 -33 1 -15
-10 -16 -11 -1 -6 14 4 16 1 9 -17 -4 -12 -6 -28 -4 -34 3 -7 0 -13 -6 -13 -6
0 -11 5 -11 10 0 17 -17 11 -22 -7 -6 -27 2 -52 15 -49 7 1 9 1 5 -1 -13 -8
-9 -23 6 -23 8 0 17 -3 19 -7 3 -5 -17 -7 -45 -7 l-50 2 6 -31 c4 -21 1 -36
-11 -50 -10 -10 -18 -22 -18 -26 0 -3 -3 -5 -7 -4 -6 2 -235 -228 -309 -312
-113 -128 -361 -395 -388 -418 -17 -14 -39 -28 -50 -32 -10 -3 -22 -16 -26
-28 -6 -18 -8 -19 -12 -6 -4 16 -7 16 -36 1 -17 -9 -42 -17 -54 -18 -40 -4
-144 -57 -130 -67 7 -5 3 -6 -10 -2 -15 4 -23 2 -23 -6 0 -7 -3 -9 -7 -6 -13
13 -263 -133 -263 -154 0 -5 -6 -9 -13 -9 -28 0 -201 -193 -239 -265 -57 -109
-94 -250 -89 -339 1 -33 -12 -36 166 29 72 26 214 76 317 111 290 98 482 183
753 334 396 221 918 486 1184 600 79 34 347 154 595 267 248 113 492 223 541
245 127 55 139 61 440 206 149 71 304 146 345 165 41 19 196 92 344 161 147
70 338 156 425 192 86 36 210 92 276 124 297 146 974 398 1295 482 297 78 300
78 600 104 95 9 373 -12 460 -35 41 -10 77 -17 79 -16 7 8 -151 445 -198 545
-38 81 -168 294 -244 399 -52 72 -62 81 -114 100 -80 29 -82 31 -110 81 -14
25 -46 68 -72 95 -68 72 -79 92 -86 169 -6 48 -13 74 -28 89 -18 18 -19 29
-14 131 6 116 22 189 63 293 13 34 24 70 24 81 0 38 -126 112 -243 142 -39 10
-74 17 -78 14 -4 -2 -10 0 -13 5 -5 8 -62 20 -126 27 -14 1 -40 5 -59 9 -23 4
-37 2 -42 -7 -7 -10 -9 -10 -9 0 0 6 -6 11 -12 11 -7 -1 -34 -5 -59 -8z
m-2658 -751 c30 -17 25 -102 -12 -213 -31 -95 -137 -308 -154 -311 -19 -2 -47
118 -48 199 0 144 55 266 143 312 50 27 46 26 71 13z m506 -15 c0 -8 -4 -12
-9 -9 -5 3 -6 10 -3 15 9 13 12 11 12 -6z m2528 -186 c11 -17 -1 -21 -15 -4
-8 9 -8 15 -2 15 6 0 14 -5 17 -11z m-85 -29 c0 -5 -4 -10 -10 -10 -5 0 -10 5
-10 10 0 6 5 10 10 10 6 0 10 -4 10 -10z m-96 -45 c-4 -8 -8 -15 -10 -15 -2 0
-4 7 -4 15 0 8 4 15 10 15 5 0 7 -7 4 -15z m-2210 -31 c3 -8 2 -12 -4 -9 -6 3
-10 10 -10 16 0 14 7 11 14 -7z m2029 -19 c-3 -9 -8 -14 -10 -11 -3 3 -2 9 2
15 9 16 15 13 8 -4z m97 -6 c0 -5 -4 -9 -10 -9 -5 0 -10 7 -10 16 0 8 5 12 10
9 6 -3 10 -10 10 -16z m-2523 -26 c-3 -10 -5 -4 -5 12 0 17 2 24 5 18 2 -7 2
-21 0 -30z m2396 22 c-3 -9 -8 -14 -10 -11 -3 3 -2 9 2 15 9 16 15 13 8 -4z
m67 -15 c0 -5 -5 -10 -11 -10 -5 0 -7 5 -4 10 3 6 8 10 11 10 2 0 4 -4 4 -10z
m-191 -3 c-2 -1 -13 -9 -24 -17 -19 -14 -19 -14 -6 3 7 9 18 17 24 17 6 0 8
-1 6 -3z m87 -9 c4 -7 3 -8 -4 -4 -7 4 -12 2 -12 -4 0 -6 -5 -8 -11 -4 -6 3
-15 0 -20 -7 -7 -11 -9 -11 -9 -1 0 10 17 21 47 31 1 1 5 -4 9 -11z m67 -18
c-3 -11 -7 -20 -9 -20 -2 0 -4 9 -4 20 0 11 4 20 9 20 5 0 7 -9 4 -20z m-2626
-32 c-3 -7 -5 -2 -5 12 0 14 2 19 5 13 2 -7 2 -19 0 -25z m1152 -2 c-3 -3 -11
5 -18 17 -13 21 -12 21 5 5 10 -10 16 -20 13 -22z m-987 11 c-6 -7 -9 -24 -6
-38 l5 -24 -11 24 c-9 22 0 51 17 51 3 0 1 -6 -5 -13z m1042 -3 c3 -8 2 -12
-4 -9 -6 3 -10 10 -10 16 0 14 7 11 14 -7z m1376 -1 c0 -2 -8 -3 -17 -1 -13 2
-19 -5 -22 -22 -3 -23 -4 -23 -11 -5 -5 13 -2 24 9 31 14 11 41 9 41 -3z
m-1269 -16 c-10 -9 -11 -8 -5 6 3 10 9 15 12 12 3 -3 0 -11 -7 -18z m1159 19
c0 -2 -8 -10 -17 -17 -16 -13 -17 -12 -4 4 13 16 21 21 21 13z m-130 -20 c0
-3 -4 -8 -10 -11 -5 -3 -10 -1 -10 4 0 6 5 11 10 11 6 0 10 -2 10 -4z m-2410
-33 c0 -21 -3 -24 -9 -14 -5 8 -7 20 -4 28 8 21 13 15 13 -14z m137 -5 c-3 -7
-5 -2 -5 12 0 14 2 19 5 13 2 -7 2 -19 0 -25z m1328 21 c11 -16 1 -19 -13 -3
-7 8 -8 14 -3 14 5 0 13 -5 16 -11z m1070 -15 c-9 -9 -19 -13 -23 -10 -3 4 0
11 8 16 24 15 33 11 15 -6z m511 0 c-5 -14 -4 -15 9 -4 8 7 15 10 15 7 0 -3
-25 -23 -56 -43 -31 -21 -64 -50 -74 -66 -9 -15 -20 -25 -24 -21 -11 11 -37
12 -30 1 4 -6 1 -9 -7 -6 -7 2 -21 -5 -31 -16 l-17 -21 -1 24 c0 32 51 78 136
124 78 41 89 44 80 21z m-586 -5 c0 -5 -4 -8 -9 -5 -5 3 -12 -1 -15 -10 -4 -9
-9 -14 -13 -11 -7 7 -65 -21 -75 -37 -6 -8 -8 -7 -8 1 0 13 80 59 80 46 0 -5
5 0 11 10 11 19 29 23 29 6z m-2390 -24 c-7 -9 -15 -13 -19 -10 -3 3 1 10 9
15 21 14 24 12 10 -5z m265 5 c-3 -5 -12 -10 -18 -10 -7 0 -6 4 3 10 19 12 23
12 15 0z m83 3 c-10 -2 -26 -2 -35 0 -10 3 -2 5 17 5 19 0 27 -2 18 -5z m222
-3 c0 -7 -192 -1 -200 7 -3 2 41 3 98 2 56 -1 102 -6 102 -9z m-664 -40 c-4
-52 -14 -63 -11 -13 3 47 4 53 10 53 2 0 3 -18 1 -40z m707 33 c-7 -2 -19 -2
-25 0 -7 3 -2 5 12 5 14 0 19 -2 13 -5z m-680 -44 c-8 -29 -13 -23 -13 14 0
22 3 28 9 18 5 -7 6 -22 4 -32z m2449 21 c-10 -12 -18 -16 -21 -9 -2 6 3 15
10 20 24 15 29 10 11 -11z m-2402 -16 c0 -12 -2 -12 -14 -2 -8 7 -12 16 -9 21
7 11 23 -2 23 -19z m900 10 c0 -2 -9 -4 -20 -4 -11 0 -20 4 -20 9 0 5 9 7 20
4 11 -3 20 -7 20 -9z m-1000 -16 c0 -16 -3 -19 -11 -11 -6 6 -8 16 -5 22 11
17 16 13 16 -11z m217 6 c-3 -3 -12 -4 -19 -1 -8 3 -5 6 6 6 11 1 17 -2 13 -5z
m2118 -24 c-10 -11 -23 -20 -28 -20 -6 0 0 9 13 20 13 11 25 20 28 20 3 0 -3
-9 -13 -20z m116 3 c13 -15 12 -15 -8 -5 -18 10 -24 9 -32 -5 -9 -16 -10 -16
-11 -1 0 14 12 25 31 27 4 1 13 -6 20 -16z m-2281 3 c0 -2 -9 -6 -20 -9 -11
-3 -18 -1 -14 4 5 9 34 13 34 5z m-190 -22 c0 -20 -18 -54 -30 -54 -5 0 -8 9
-7 19 0 11 5 19 10 18 5 -1 12 4 15 12 3 9 0 11 -8 6 -9 -5 -11 -4 -6 3 10 17
26 15 26 -4z m125 7 c3 -6 -3 -14 -13 -20 -14 -7 -19 -6 -19 4 0 7 7 11 15 7
10 -3 13 -1 8 6 -4 7 -5 12 -2 12 3 0 7 -4 11 -9z m2180 -29 c-11 -3 -12 -9
-4 -30 10 -26 10 -26 -10 -8 -19 17 -21 17 -27 2 -5 -13 -9 -14 -20 -5 -11 9
-18 8 -32 -3 -9 -8 -26 -18 -37 -22 -16 -5 -15 -2 5 14 14 11 28 20 33 20 4 0
7 8 7 17 0 15 2 15 14 -2 13 -18 15 -18 42 11 17 17 32 25 36 19 4 -5 1 -11
-7 -13z m82 14 c0 -8 -8 -11 -19 -8 -12 3 -21 -3 -27 -19 -9 -23 -10 -23 -10
-2 -1 15 8 24 27 31 15 6 27 11 28 11 0 1 1 -5 1 -13z m-2313 -27 c-8 -13 -24
-1 -24 18 0 13 3 13 15 3 8 -7 12 -16 9 -21z m533 -11 c-3 -8 -6 -5 -6 6 -1
11 2 17 5 13 3 -3 4 -12 1 -19z m1403 18 c0 -2 -7 -7 -16 -10 -8 -3 -12 -2 -9
4 6 10 25 14 25 6z m-2014 -64 c-11 -13 -29 -28 -39 -33 -15 -9 -17 -5 -15 36
0 25 4 41 8 35 4 -6 5 -23 3 -38 -4 -26 -4 -26 11 -8 9 11 16 17 16 13 0 -5 6
-2 13 5 8 7 12 22 10 33 -3 20 -3 20 6 0 6 -15 3 -26 -13 -43z m1540 40 c-10
-2 -22 0 -28 6 -6 6 0 7 19 4 21 -5 23 -7 9 -10z m431 12 c-3 -3 -12 -4 -19
-1 -8 3 -5 6 6 6 11 1 17 -2 13 -5z m-344 -11 c-7 -2 -21 -2 -30 0 -10 3 -4 5
12 5 17 0 24 -2 18 -5z m-1703 -59 c-12 -21 -12 -27 -1 -33 9 -6 10 -11 3 -15
-6 -4 -15 2 -21 11 -10 17 -10 17 -11 1 0 -10 -5 -18 -11 -18 -12 0 -12 2 20
53 26 41 43 43 21 1z m586 -189 c-20 -15 -36 -19 -36 -10 0 5 38 23 50 24 3 0
-4 -6 -14 -14z m-816 -110 c0 -8 -2 -15 -4 -15 -2 0 -6 7 -10 15 -3 8 -1 15 4
15 6 0 10 -7 10 -15z m-8 -42 c-6 -2 -10 -8 -8 -12 3 -4 -1 -8 -9 -8 -8 0 -15
3 -15 7 0 12 13 20 29 19 11 0 12 -2 3 -6z m2962 -44 c-39 -4 -84 -14 -100
-20 -16 -7 -40 -14 -53 -16 -34 -6 -76 -29 -105 -58 -14 -14 -28 -25 -31 -25
-8 0 -70 -63 -118 -120 l-38 -45 33 49 c44 67 145 169 188 191 61 32 152 54
225 53 l70 -1 -71 -8z m189 4 c-7 -2 -19 -2 -25 0 -7 3 -2 5 12 5 14 0 19 -2
13 -5z m100 0 c-7 -2 -21 -2 -30 0 -10 3 -4 5 12 5 17 0 24 -2 18 -5z m-3248
-13 c-3 -5 -12 -10 -18 -10 -7 0 -6 4 3 10 19 12 23 12 15 0z m851 -78 c0 -10
-6 -19 -13 -19 -8 0 -9 6 -2 19 5 10 11 18 12 18 2 0 3 -8 3 -18z m84 14 c0
-9 -30 -14 -35 -6 -4 6 3 10 14 10 12 0 21 -2 21 -4z m-290 -31 c0 -8 -8 -15
-17 -14 -11 0 -13 3 -5 6 6 2 10 9 6 14 -3 5 0 9 5 9 6 0 11 -7 11 -15z m-45
-5 c-3 -5 -13 -6 -22 -3 -12 5 -14 3 -8 -7 5 -9 4 -11 -4 -6 -16 10 -4 26 20
26 11 0 18 -4 14 -10z m-61 -8 c2 -4 -5 -9 -17 -9 -17 -2 -19 0 -7 7 18 12 18
12 24 2z m-67 -30 c-24 -25 -25 -28 -9 -40 15 -11 14 -11 -4 -3 -12 6 -24 7
-28 3 -4 -3 -4 1 0 11 8 22 -12 22 -24 1 -7 -13 -11 -14 -17 -4 -9 15 14 32
38 26 9 -2 17 1 17 7 0 6 3 8 6 4 4 -3 13 0 21 8 27 27 27 15 0 -13z m133 8
c0 -5 -3 -10 -7 -11 -92 -7 -116 -6 -93 3 14 5 37 8 53 5 15 -2 27 0 27 5 0 4
5 8 10 8 6 0 10 -4 10 -10z m47 4 c-3 -3 -12 -4 -19 -1 -8 3 -5 6 6 6 11 1 17
-2 13 -5z m-787 -21 c0 -3 -7 -3 -15 1 -9 3 -20 -4 -28 -21 -11 -21 -15 -22
-20 -10 -7 19 28 48 49 40 8 -3 14 -7 14 -10z m516 -25 c4 -6 2 -14 -4 -16 -8
-2 -7 -8 4 -19 8 -8 12 -18 9 -21 -3 -4 -10 0 -16 8 -8 13 -11 13 -23 -2 -7
-10 -19 -18 -27 -18 -10 1 -9 5 4 14 10 8 15 16 10 18 -10 6 -55 -17 -48 -24
3 -3 -1 -8 -9 -11 -11 -4 -13 -1 -9 10 5 13 2 15 -13 9 -14 -5 -16 -4 -8 4 6
6 21 12 33 13 11 1 21 5 21 9 0 7 48 37 62 38 4 0 10 -5 14 -12z m-607 -35
c-6 -10 -27 -26 -47 -35 -29 -14 -32 -14 -15 -2 12 9 32 24 44 35 27 24 32 24
18 2z m651 13 c0 -2 -7 -7 -16 -10 -8 -3 -12 -2 -9 4 6 10 25 14 25 6z m-572
-28 c-3 -7 -10 -13 -17 -13 -12 0 -81 -74 -81 -87 0 -5 -6 -8 -14 -8 -21 0
-30 -19 -16 -35 8 -10 8 -15 -1 -20 -6 -4 -15 -2 -19 5 -5 8 -16 10 -26 6 -18
-6 111 122 151 150 24 17 28 17 23 2z m579 -4 c-3 -3 -12 -4 -19 -1 -8 3 -5 6
6 6 11 1 17 -2 13 -5z m2803 -4 c0 -5 -11 -12 -25 -16 -24 -6 -32 -23 -19 -37
4 -3 15 -2 26 4 10 5 23 7 29 3 7 -4 -2 -12 -21 -20 -18 -8 -30 -19 -27 -26 5
-14 9 -14 45 -3 12 3 22 2 22 -4 0 -5 -9 -12 -20 -15 -11 -3 -29 -8 -39 -11
-15 -5 -22 3 -35 41 -22 65 -21 72 17 83 43 12 47 13 47 1z m-3017 -30 c-3
-13 -14 -20 -29 -20 -13 0 -24 -5 -24 -11 0 -5 6 -7 13 -3 7 4 9 3 4 -2 -5 -5
-13 -10 -18 -10 -5 -1 -14 -2 -20 -3 -5 0 -7 -5 -4 -11 3 -5 1 -10 -4 -10 -6
0 -11 -5 -11 -10 0 -6 14 -8 33 -5 22 4 28 2 17 -4 -8 -5 -18 -7 -24 -4 -5 4
-7 -1 -3 -9 4 -11 -1 -18 -15 -21 -13 -4 -17 -10 -12 -19 6 -9 3 -9 -10 1 -16
14 -16 15 5 26 12 7 18 14 13 17 -13 7 -76 -17 -67 -26 4 -4 1 -5 -7 -2 -8 3
-26 -3 -40 -14 -21 -16 -23 -21 -11 -32 8 -7 11 -8 8 -2 -10 17 27 42 49 33
16 -6 14 -8 -13 -14 -18 -4 -31 -12 -30 -18 1 -6 -12 -11 -29 -12 -17 -1 -36
-5 -42 -9 -6 -3 -13 0 -15 6 -3 8 -6 6 -6 -4 -1 -10 5 -18 12 -19 6 0 2 -4
-10 -9 -13 -5 -23 -14 -23 -20 0 -5 -9 -10 -21 -10 -11 0 -18 -4 -15 -9 3 -5
-5 -11 -18 -13 -17 -3 -23 -1 -19 8 3 9 -2 11 -17 7 -20 -5 -20 -7 -4 -24 9
-11 13 -19 8 -19 -5 0 -2 -5 6 -10 8 -5 11 -10 5 -11 -5 0 -18 -2 -28 -4 -11
-2 -15 1 -10 8 13 22 11 35 -8 53 -11 10 -19 12 -19 6 0 -7 -7 -12 -16 -12 -8
0 -12 -4 -9 -10 5 -9 -6 -14 -25 -12 -3 0 -6 -8 -6 -19 0 -24 13 -24 40 -1 19
16 20 16 7 0 -12 -16 -10 -19 10 -26 l24 -9 -23 -7 c-12 -4 -20 -12 -17 -17 4
-5 1 -9 -4 -9 -6 0 -11 5 -11 12 0 7 -5 6 -12 -4 -15 -17 -53 -33 -43 -18 3 6
13 10 22 10 9 0 14 3 11 6 -4 3 -9 5 -12 5 -14 -2 -47 42 -42 55 3 8 1 14 -5
14 -5 0 -12 -7 -15 -15 -4 -8 -13 -15 -22 -15 -13 0 -13 2 3 14 18 13 18 14
-5 26 -20 11 -21 14 -7 22 9 5 23 8 29 7 23 -3 38 1 37 9 -3 20 3 31 21 37 12
4 20 15 20 28 0 13 3 17 8 11 7 -12 52 -1 52 12 0 3 -7 4 -15 0 -13 -5 -14 -2
-4 17 15 29 24 37 16 15 -4 -10 -2 -18 3 -18 6 0 10 4 10 8 0 4 14 13 30 19
17 6 28 7 24 2 -3 -5 10 -7 30 -3 23 3 36 1 36 -6 0 -7 6 -8 19 0 11 5 32 10
48 10 15 0 36 7 46 14 10 8 26 12 37 9 12 -3 20 2 25 16 3 12 10 21 15 21 5 0
35 18 66 40 32 22 58 40 60 40 1 0 0 -9 -3 -20z m131 1 c3 -5 -1 -11 -9 -14
-9 -4 -12 -1 -8 9 6 16 10 17 17 5z m2786 -1 c0 -5 -7 -13 -16 -18 -13 -7 -14
-15 -4 -51 16 -61 0 -75 -20 -15 -11 32 -22 49 -33 49 -32 0 -22 18 18 31 52
16 55 16 55 4z m-2875 -10 c-3 -5 -11 -10 -16 -10 -6 0 -7 5 -4 10 3 6 11 10
16 10 6 0 7 -4 4 -10z m-551 -8 c8 -13 -9 -32 -32 -37 -26 -5 -29 13 -4 31 20
16 29 17 36 6z m641 -22 c-3 -5 -12 -10 -18 -10 -7 0 -6 4 3 10 19 12 23 12
15 0z m2683 -41 c14 -60 15 -69 4 -69 -5 0 -14 19 -21 43 -7 23 -15 50 -17 60
-3 10 0 17 9 17 8 0 18 -20 25 -51z m-38 -20 c16 -65 5 -76 -42 -44 -40 27
-51 24 -37 -12 12 -32 12 -33 -5 -33 -8 0 -18 19 -25 44 -21 83 -12 93 43 51
37 -28 49 -24 35 12 -10 26 -4 47 11 38 4 -3 13 -28 20 -56z m-2730 27 c0 -2
-7 -7 -16 -10 -8 -3 -12 -2 -9 4 6 10 25 14 25 6z m-770 -36 c0 -5 -5 -10 -11
-10 -5 0 -7 5 -4 10 3 6 8 10 11 10 2 0 4 -4 4 -10z m3335 -10 c4 -6 -8 -10
-28 -10 -21 0 -41 -7 -52 -20 -17 -18 -17 -21 -1 -45 19 -29 22 -29 56 -10 32
18 41 19 34 1 -8 -20 -59 -39 -84 -31 -19 6 -40 41 -40 66 0 5 11 21 25 34 25
26 78 34 90 15z m-395 -20 c-6 -11 -13 -20 -16 -20 -2 0 0 9 6 20 6 11 13 20
16 20 2 0 0 -9 -6 -20z m-1694 -4 c3 -8 -17 -38 -48 -71 -60 -65 -68 -77 -72
-108 -7 -65 -41 -132 -89 -179 -47 -46 -67 -54 -119 -49 -10 1 -18 -2 -18 -6
0 -5 20 -9 45 -9 25 0 45 4 45 8 0 4 7 8 15 8 8 0 15 5 15 12 0 7 9 4 21 -8
13 -13 26 -51 38 -107 11 -58 24 -94 39 -110 13 -13 31 -41 42 -61 16 -33 17
-37 2 -34 -9 2 -21 16 -27 32 -5 16 -22 41 -36 55 -16 16 -28 43 -33 70 -8 50
-22 81 -38 81 -7 0 -6 -5 2 -15 11 -13 10 -14 -4 -9 -14 5 -15 3 -6 -20 5 -14
6 -26 2 -26 -4 0 -2 -4 3 -8 6 -4 17 -16 25 -27 11 -16 11 -17 0 -7 -8 6 -21
12 -30 12 -13 0 -13 -1 0 -10 10 -7 11 -10 2 -10 -7 0 -25 21 -41 48 -43 69
-69 92 -110 94 l-36 1 33 4 c18 2 30 8 27 13 -7 11 -55 -2 -52 -15 2 -12 -42
-22 -102 -24 -27 -1 -60 7 -87 20 l-43 22 -32 -27 c-29 -25 -39 -27 -93 -24
-58 3 -61 2 -59 -19 3 -25 -4 -28 -26 -14 -29 19 7 52 82 75 10 3 17 15 17 32
0 24 -2 26 -34 20 -49 -9 -67 0 -53 27 21 40 59 88 65 83 3 -3 12 0 20 7 12 9
16 9 19 0 3 -8 24 -13 57 -13 54 0 146 -26 188 -54 70 -46 181 -61 237 -32 34
18 85 99 101 161 36 139 124 267 146 211z m1961 -52 c16 -61 16 -67 1 -62 -6
2 -17 26 -24 54 -17 62 -17 67 -2 62 7 -3 18 -27 25 -54z m163 47 c0 -5 -11
-12 -24 -15 -13 -3 -31 -9 -40 -12 -9 -3 -16 -2 -16 4 0 6 12 15 28 20 35 13
52 14 52 3z m-2890 -61 c0 -5 -5 -10 -11 -10 -5 0 -7 5 -4 10 3 6 8 10 11 10
2 0 4 -4 4 -10z m-526 -232 c5 -4 13 -5 17 -2 4 2 13 -3 20 -12 7 -8 8 -14 3
-13 -21 4 -35 -2 -29 -12 4 -6 -2 -13 -14 -16 -12 -3 -21 -12 -21 -19 0 -8 -7
-14 -15 -14 -7 0 -18 -7 -22 -15 -12 -21 -76 -28 -68 -8 3 11 1 13 -10 9 -8
-3 -15 -2 -15 3 0 9 -36 8 -45 -1 -4 -3 10 -11 30 -18 24 -8 33 -16 27 -22 -6
-6 -17 -6 -31 2 -12 6 -25 9 -29 6 -4 -3 -14 -1 -22 4 -12 7 -6 18 29 54 38
39 47 43 68 35 14 -5 28 -7 33 -4 5 3 10 0 12 -7 3 -7 10 -8 17 -3 10 5 4 12
-19 21 -18 8 -36 11 -41 8 -5 -3 -9 -1 -9 4 0 14 56 63 63 55 4 -4 18 -8 30
-9 12 -2 16 0 9 2 -6 3 -9 11 -5 17 4 6 0 8 -10 4 -22 -8 -22 1 1 26 17 19 17
18 26 -24 5 -24 14 -47 20 -51z m153 86 c-3 -3 -12 -4 -19 -1 -8 3 -5 6 6 6
11 1 17 -2 13 -5z m-268 -26 c-7 -13 -13 -25 -13 -28 -1 -3 -6 -4 -13 -4 -6 1
-9 -5 -6 -12 4 -10 0 -12 -11 -8 -13 5 -23 -8 -13 -19 4 -5 -38 -44 -61 -56
-14 -7 -21 -18 -18 -26 3 -9 0 -12 -8 -9 -8 3 -16 -4 -19 -16 -3 -12 -14 -24
-25 -27 -11 -2 -25 -16 -31 -30 -7 -14 -14 -23 -17 -20 -9 8 23 63 48 84 13
10 31 31 41 46 10 15 29 32 43 37 13 5 24 14 24 19 0 11 71 89 83 90 4 1 2 -9
-4 -21z m318 -16 c-10 -10 -15 -21 -12 -24 3 -3 -2 -11 -12 -19 -11 -9 -14
-10 -9 -1 4 7 2 12 -6 12 -7 1 1 12 17 25 36 29 45 32 22 7z m-499 -86 c-18
-24 -34 -42 -36 -41 -6 5 50 85 60 85 5 0 -6 -20 -24 -44z m439 -32 c-3 -3
-12 -4 -19 -1 -8 3 -5 6 6 6 11 1 17 -2 13 -5z m-72 -32 c-3 -3 -11 0 -18 7
-9 10 -8 11 6 5 10 -3 15 -9 12 -12z m464 4 c-2 -2 -15 -9 -29 -15 -24 -11
-24 -11 -6 3 16 13 49 24 35 12z m-725 -48 c15 -1 26 -6 26 -10 0 -4 7 -8 15
-8 8 0 15 -4 15 -10 0 -5 -7 -10 -15 -10 -7 0 -18 -6 -22 -12 -4 -7 -20 -23
-34 -36 l-26 -23 -46 20 c-25 11 -48 16 -52 13 -4 -4 -5 0 -3 8 3 8 12 13 19
11 8 -2 23 -4 34 -5 11 -1 26 -7 33 -14 11 -10 19 -8 42 10 32 26 39 41 13 31
-9 -4 -14 -2 -10 3 3 5 -2 10 -11 11 -9 1 -27 4 -39 8 -14 5 -23 3 -23 -3 0
-6 16 -14 35 -18 37 -7 45 -18 20 -28 -8 -3 -15 -2 -15 2 0 7 -16 11 -57 14
-19 2 -16 9 13 40 21 21 31 25 45 18 10 -6 29 -11 43 -12z m86 9 c0 -7 -9 -13
-21 -14 -17 -2 -18 1 -9 13 15 17 30 18 30 1z m86 -29 c4 -6 3 -8 -3 -5 -6 4
-16 0 -23 -8 -10 -12 -9 -15 5 -15 10 0 16 -3 12 -6 -3 -4 -14 -4 -23 0 -15 6
-15 8 1 26 21 23 22 24 31 8z m957 -5 c-7 -2 -21 -2 -30 0 -10 3 -4 5 12 5 17
0 24 -2 18 -5z m-56 -9 c-3 -3 -12 -4 -19 -1 -8 3 -5 6 6 6 11 1 17 -2 13 -5z
m-54 -11 c-7 -2 -19 -2 -25 0 -7 3 -2 5 12 5 14 0 19 -2 13 -5z m-280 -10
c-13 -2 -33 -2 -45 0 -13 2 -3 4 22 4 25 0 35 -2 23 -4z m62 -22 c8 -14 -9
-21 -35 -14 -22 6 -23 7 -4 14 26 10 32 10 39 0z m-925 -31 c0 -5 -8 -7 -17
-5 -10 2 -22 4 -26 4 -5 1 -6 5 -3 10 7 11 46 3 46 -9z m247 4 c-3 -3 -12 -4
-19 -1 -8 3 -5 6 6 6 11 1 17 -2 13 -5z m640 0 c-3 -3 -12 -4 -19 -1 -8 3 -5
6 6 6 11 1 17 -2 13 -5z m-862 -13 c3 -5 1 -12 -5 -16 -5 -3 -10 1 -10 9 0 18
6 21 15 7z m725 -5 c-10 -13 -40 -12 -40 1 0 3 7 3 15 -1 8 -3 15 -1 15 4 0 6
5 10 11 10 8 0 8 -4 -1 -14z m-690 -5 c0 -5 -7 -12 -16 -15 -14 -5 -15 -4 -4
9 14 17 20 19 20 6z m-65 -20 c3 -5 1 -12 -5 -16 -5 -3 -10 1 -10 9 0 18 6 21
15 7z m722 3 c-3 -3 -12 -4 -19 -1 -8 3 -5 6 6 6 11 1 17 -2 13 -5z m-687 -18
c0 -2 -7 -7 -16 -10 -8 -3 -12 -2 -9 4 6 10 25 14 25 6z m96 -5 c-4 -5 0 -11
6 -14 7 -3 3 -4 -9 -4 -25 1 -30 12 -10 20 18 8 19 8 13 -2z m-339 -39 c1 -20
5 -47 8 -59 4 -18 1 -21 -16 -18 -17 3 -19 2 -9 -10 17 -21 3 -38 -21 -25 -10
6 -20 8 -20 5 -1 -3 -2 -11 -3 -17 -1 -7 -9 -12 -19 -12 -10 1 -17 -5 -17 -17
0 -10 -4 -19 -10 -19 -5 0 -10 5 -10 11 0 8 -6 7 -17 -1 -10 -7 15 18 55 56
78 74 92 98 39 65 -19 -11 -37 -18 -41 -14 -4 4 -4 -1 0 -11 5 -13 4 -17 -3
-13 -6 4 -14 0 -17 -8 -3 -9 -17 -20 -31 -25 -15 -6 -24 -14 -21 -18 6 -10
-47 -52 -65 -52 -6 0 -8 -7 -5 -16 5 -12 2 -15 -9 -10 -9 3 -13 2 -10 -3 5 -9
-12 -25 -26 -26 -9 0 -41 -35 -32 -35 14 -1 -38 -40 -53 -40 -21 0 -6 26 22
39 13 6 27 18 31 27 7 19 163 174 176 174 5 0 18 11 28 24 11 14 28 27 38 31
10 3 24 17 31 30 18 34 25 31 27 -13z m1748 -92 c8 -25 -1 -40 -23 -39 -14 0
-13 2 3 9 11 5 14 9 8 9 -15 1 -18 41 -4 41 5 0 12 -9 16 -20z m-1729 -28 c5
-4 10 -16 10 -28 0 -16 -6 -20 -30 -19 -17 1 -32 7 -34 14 -3 9 -8 9 -20 -1
-13 -11 -14 -11 -10 2 3 9 15 14 32 12 18 -2 26 2 26 13 0 16 9 19 26 7z
m-129 -205 c3 -4 -1 -7 -9 -7 -9 0 -20 -6 -26 -12 -8 -10 0 -13 34 -15 24 -1
60 -4 81 -7 21 -3 54 -8 73 -11 80 -11 166 -28 175 -35 12 -9 14 -10 55 -10
17 0 30 -4 30 -10 0 -14 -67 -13 -76 1 -4 7 -22 9 -45 6 -25 -3 -37 -1 -33 5
4 6 -5 9 -22 7 -16 -1 -37 2 -47 6 -10 4 -31 5 -48 1 -16 -3 -28 -2 -25 3 8
13 -11 17 -81 16 -33 0 -59 4 -56 9 3 4 -10 5 -28 1 -19 -4 -35 -11 -37 -16
-2 -5 -8 -9 -13 -9 -6 0 -7 5 -4 10 8 12 -17 13 -30 1 -6 -5 -21 -12 -34 -16
-17 -5 -22 -4 -16 5 5 8 3 11 -6 8 -9 -3 -13 -16 -11 -35 2 -17 -2 -34 -9 -39
-9 -5 -10 -2 -6 9 7 18 -8 24 -18 7 -11 -19 -22 -10 -20 15 3 25 -8 34 -20 15
-3 -5 -1 -10 6 -10 10 0 10 -3 2 -11 -6 -6 -9 -18 -6 -25 3 -8 -1 -14 -10 -14
-9 0 -14 7 -12 18 2 9 4 17 5 17 1 0 3 8 5 18 4 22 0 22 -38 -4 l-32 -21 25
22 c14 12 47 42 73 66 55 50 67 55 42 18 -15 -23 -15 -25 0 -22 9 1 16 8 16
13 0 12 41 35 51 29 3 -2 9 0 12 4 6 10 123 9 133 -1z m-263 -6 c3 -4 -6 -19
-19 -31 l-25 -24 2 27 c2 20 5 24 16 15 7 -6 12 -7 11 -2 -4 22 5 32 15 15z
m-54 -60 c0 -5 -7 -11 -15 -15 -15 -5 -20 5 -8 17 9 10 23 9 23 -2z m155 -51
c-3 -5 -10 -10 -16 -10 -5 0 -9 5 -9 10 0 6 7 10 16 10 8 0 12 -4 9 -10z m635
-11 c0 -5 -8 -9 -17 -7 -10 1 -24 -1 -30 -5 -13 -8 -18 5 -6 16 10 11 53 8 53
-4z m78 -9 c12 0 22 -4 22 -10 0 -17 -66 -11 -81 7 -13 15 -11 16 11 10 14 -4
35 -7 48 -7z m-855 -20 c-8 -28 -20 -34 -17 -7 3 28 2 27 13 27 5 0 7 -9 4
-20z m67 0 c0 -5 -5 -10 -11 -10 -5 0 -7 5 -4 10 3 6 8 10 11 10 2 0 4 -4 4
-10z m870 -10 c11 -7 7 -10 -17 -10 -18 0 -33 5 -33 10 0 13 30 13 50 0z m50
-20 c0 -5 6 -7 14 -4 8 3 23 1 33 -5 14 -8 11 -10 -20 -7 -38 2 -78 26 -44 26
9 0 17 -4 17 -10z m-596 -8 c2 -4 24 -9 47 -11 46 -2 59 -7 59 -22 0 -6 -7 -6
-19 1 -16 8 -23 5 -38 -13 -22 -28 -57 -32 -50 -6 5 19 -14 16 -42 -5 -15 -12
-14 -9 8 37 14 27 26 34 35 19z m-433 -35 c-10 -9 -11 -8 -5 6 3 10 9 15 12
12 3 -3 0 -11 -7 -18z m573 5 c3 -5 -1 -9 -9 -9 -8 0 -12 4 -9 9 3 4 7 8 9 8
2 0 6 -4 9 -8z m579 1 c3 -5 -8 -8 -24 -9 -15 -1 -26 3 -23 7 6 11 41 12 47 2z
m-636 -40 c-6 -14 -13 -20 -15 -14 -2 6 -8 9 -13 5 -12 -7 -11 3 3 25 18 29
40 16 25 -16z m98 27 c7 -12 -14 -44 -23 -35 -3 3 -12 -1 -20 -8 -13 -10 -14
-9 -3 12 9 17 15 20 21 11 6 -9 9 -9 15 0 4 7 1 16 -6 21 -9 6 -10 9 -2 9 6 0
15 -5 18 -10z m-60 -20 c3 -5 -1 -10 -10 -10 -9 0 -13 5 -10 10 3 6 8 10 10
10 2 0 7 -4 10 -10z m-465 -10 c0 -5 -5 -10 -11 -10 -5 0 -7 5 -4 10 3 6 8 10
11 10 2 0 4 -4 4 -10z m577 -32 c-3 -7 -5 -2 -5 12 0 14 2 19 5 13 2 -7 2 -19
0 -25z m-27 12 c0 -5 -7 -7 -15 -4 -8 4 -15 8 -15 10 0 2 7 4 15 4 8 0 15 -4
15 -10z m-750 -10 c7 4 19 6 26 3 11 -4 11 -8 -1 -19 -16 -16 -29 -19 -20 -4
3 6 1 10 -4 10 -6 0 -11 -4 -11 -10 0 -5 -8 -10 -17 -10 -15 0 -16 2 -3 10 8
5 11 10 5 10 -5 0 -21 -9 -35 -20 -15 -12 -18 -18 -7 -14 20 7 25 -20 5 -32
-7 -5 -8 -3 -3 6 5 8 3 11 -6 8 -8 -3 -14 -10 -14 -16 0 -6 -7 -17 -15 -24
-12 -11 -12 -11 -1 5 19 25 -2 21 -25 -5 -10 -12 -14 -18 -8 -15 15 9 27 -20
12 -29 -7 -4 -8 -3 -4 4 4 7 1 12 -7 12 -15 0 -55 -39 -57 -55 -2 -14 -57 -47
-63 -38 -6 10 14 34 90 106 34 31 59 57 55 57 -3 0 9 16 28 35 25 25 37 32 50
25 9 -5 22 -5 30 0z m160 0 c0 -5 -5 -10 -11 -10 -5 0 -7 5 -4 10 3 6 8 10 11
10 2 0 4 -4 4 -10z m90 6 c0 -3 -4 -8 -10 -11 -5 -3 -10 -1 -10 4 0 6 5 11 10
11 6 0 10 -2 10 -4z m-40 -16 c0 -5 -7 -10 -16 -10 -8 0 -12 5 -9 10 3 6 10
10 16 10 5 0 9 -4 9 -10z m80 0 c0 -5 -4 -10 -10 -10 -5 0 -10 5 -10 10 0 6 5
10 10 10 6 0 10 -4 10 -10z m-310 -40 c0 -5 -5 -10 -11 -10 -5 0 -7 5 -4 10 3
6 8 10 11 10 2 0 4 -4 4 -10z m70 -10 c0 -5 -5 -10 -11 -10 -5 0 -7 5 -4 10 3
6 8 10 11 10 2 0 4 -4 4 -10z m-100 -70 c0 -5 -5 -10 -11 -10 -5 0 -7 5 -4 10
3 6 8 10 11 10 2 0 4 -4 4 -10z m213 -7 c-7 -2 -21 -2 -30 0 -10 3 -4 5 12 5
17 0 24 -2 18 -5z m-313 -28 c-7 -8 -18 -15 -24 -15 -6 0 -2 7 8 15 25 19 32
19 16 0z m309 -12 l11 -28 -20 24 c-11 13 -20 19 -20 13 0 -6 -10 -8 -22 -5
-17 3 -19 2 -10 -5 11 -7 8 -11 -12 -14 -36 -7 -33 6 7 26 44 22 52 20 66 -11z
m55 15 c-7 -11 -54 -10 -54 1 0 5 13 8 29 7 16 0 27 -4 25 -8z m49 -5 c-7 -2
-13 -12 -13 -21 0 -15 -2 -15 -10 -2 -9 15 4 30 25 29 6 0 4 -3 -2 -6z m32
-13 c-3 -5 -11 -10 -16 -10 -6 0 -7 5 -4 10 3 6 11 10 16 10 6 0 7 -4 4 -10z
m-88 -6 c-3 -3 -12 -4 -19 -1 -8 3 -5 6 6 6 11 1 17 -2 13 -5z m-287 -24 c0
-5 -5 -10 -11 -10 -5 0 -7 5 -4 10 3 6 8 10 11 10 2 0 4 -4 4 -10z m-110 -9
c0 -5 -9 -11 -20 -14 -13 -3 -18 -10 -14 -21 3 -9 1 -16 -6 -16 -6 0 -8 5 -5
10 12 19 -10 9 -50 -22 -22 -17 -32 -28 -22 -25 9 4 17 2 17 -3 0 -6 -6 -10
-14 -10 -8 0 -18 -5 -22 -11 -4 -8 1 -9 17 -4 13 3 -4 -12 -39 -34 -41 -27
-61 -45 -56 -54 4 -6 4 -9 0 -6 -8 8 -66 -45 -66 -60 0 -6 -7 -11 -15 -11 -9
0 -28 -11 -43 -25 -15 -14 -29 -25 -33 -25 -3 0 41 47 98 105 57 58 108 103
113 100 6 -4 9 -3 8 2 -7 28 60 104 98 109 7 1 20 7 31 13 22 13 23 13 23 2z
m655 -21 c3 -6 -1 -7 -9 -4 -18 7 -21 14 -7 14 6 0 13 -4 16 -10z m-725 -50
c0 -5 -5 -10 -11 -10 -5 0 -7 5 -4 10 3 6 8 10 11 10 2 0 4 -4 4 -10z m125
-30 c-3 -5 -10 -10 -16 -10 -5 0 -9 5 -9 10 0 6 7 10 16 10 8 0 12 -4 9 -10z
m-25 -50 c0 -5 -7 -10 -15 -10 -8 0 -15 5 -15 10 0 6 7 10 15 10 8 0 15 -4 15
-10z m-40 -54 c0 -3 -4 -8 -10 -11 -5 -3 -10 -1 -10 4 0 6 5 11 10 11 6 0 10
-2 10 -4z"/>
<path d="M3750 3940 c0 -5 5 -10 11 -10 5 0 7 5 4 10 -3 6 -8 10 -11 10 -2 0
-4 -4 -4 -10z"/>
<path d="M3508 3783 c7 -3 16 -2 19 1 4 3 -2 6 -13 5 -11 0 -14 -3 -6 -6z"/>
<path d="M3200 3700 c0 -5 5 -10 10 -10 6 0 10 5 10 10 0 6 -4 10 -10 10 -5 0
-10 -4 -10 -10z"/>
<path d="M3365 3700 c-3 -5 -1 -10 4 -10 6 0 11 5 11 10 0 6 -2 10 -4 10 -3 0
-8 -4 -11 -10z"/>
<path d="M3285 3645 c-16 -13 -26 -27 -22 -31 4 -4 7 -2 7 4 0 7 5 12 10 12 6
0 19 9 30 20 28 28 11 24 -25 -5z"/>
<path d="M3150 3649 c0 -5 5 -7 10 -4 6 3 10 8 10 11 0 2 -4 4 -10 4 -5 0 -10
-5 -10 -11z"/>
<path d="M3145 3530 c-3 -5 -1 -10 4 -10 6 0 11 5 11 10 0 6 -2 10 -4 10 -3 0
-8 -4 -11 -10z"/>
<path d="M3096 3833 c-6 -14 -5 -15 5 -6 7 7 10 15 7 18 -3 3 -9 -2 -12 -12z"/>
<path d="M3680 3335 c0 -18 33 -35 69 -35 54 0 60 15 11 28 -24 6 -40 6 -40 1
0 -6 -9 -5 -20 1 -11 6 -20 8 -20 5z"/>
<path d="M2760 3430 c0 -5 5 -10 10 -10 6 0 10 5 10 10 0 6 -4 10 -10 10 -5 0
-10 -4 -10 -10z"/>
<path d="M2790 3420 c0 -5 5 -10 10 -10 6 0 10 5 10 10 0 6 -4 10 -10 10 -5 0
-10 -4 -10 -10z"/>
<path d="M2690 3360 c0 -6 11 -10 23 -10 13 0 27 -3 31 -7 12 -12 45 -13 52
-1 5 8 2 9 -9 5 -10 -4 -17 -2 -17 4 0 6 -7 9 -15 5 -8 -3 -15 -2 -15 2 0 4
-11 9 -25 10 -14 1 -25 -3 -25 -8z"/>
<path d="M2063 2733 c-20 -8 -15 -19 10 -20 12 0 16 1 9 4 -6 3 -10 9 -6 14 6
10 5 10 -13 2z"/>
<path d="M2065 2690 c-3 -5 -1 -10 4 -10 6 0 11 5 11 10 0 6 -2 10 -4 10 -3 0
-8 -4 -11 -10z"/>
<path d="M1993 2660 c1 -21 12 -26 22 -10 3 6 1 10 -5 10 -6 0 -8 5 -5 10 3 6
2 10 -4 10 -5 0 -9 -9 -8 -20z"/>
<path d="M4870 4835 c0 -5 5 -17 10 -25 5 -8 10 -10 10 -5 0 6 -5 17 -10 25
-5 8 -10 11 -10 5z"/>
<path d="M3365 4360 c-3 -5 -1 -10 4 -10 6 0 11 5 11 10 0 6 -2 10 -4 10 -3 0
-8 -4 -11 -10z"/>
<path d="M3356 4322 c-7 -11 4 -52 14 -52 8 0 5 48 -3 57 -3 2 -7 0 -11 -5z"/>
<path d="M7160 3671 c-92 -47 -198 -120 -256 -176 -25 -24 -143 -128 -154
-135 -4 -3 -10 -14 -14 -26 -4 -15 -26 -27 -76 -44 -39 -13 -78 -32 -87 -43
-17 -19 -17 -20 0 -14 9 4 17 3 17 -2 0 -5 16 -12 36 -15 19 -4 38 -14 41 -21
3 -8 9 -12 14 -9 5 3 9 1 9 -4 0 -4 27 -21 60 -37 39 -19 56 -31 48 -36 -12
-7 -107 13 -208 42 -19 6 -55 15 -79 20 -54 11 -69 29 -38 46 12 7 29 12 37
13 8 0 21 9 28 20 7 12 17 18 22 15 5 -3 7 0 5 7 -7 18 43 87 128 178 37 40
66 75 63 77 -2 3 10 18 27 35 28 25 22 30 -8 6 -5 -5 -30 -21 -54 -37 -24 -16
-114 -99 -200 -184 -146 -146 -191 -181 -253 -192 -10 -2 -18 2 -18 8 0 21 40
89 82 138 22 26 37 53 33 59 -3 6 -1 9 6 8 7 -2 15 6 17 16 4 18 2 18 -25 -2
-17 -12 -93 -86 -171 -166 -142 -147 -200 -196 -232 -196 -23 0 -17 29 17 83
13 20 21 37 18 37 -6 0 55 91 67 100 4 3 19 23 34 45 26 38 24 38 -28 -4 -9
-8 -14 -19 -11 -25 3 -6 2 -8 -2 -3 -11 9 -45 -22 -45 -41 0 -9 -2 -13 -5 -10
-9 8 -168 -156 -198 -204 -10 -16 -23 -28 -30 -28 -6 0 -23 -12 -36 -25 l-23
-25 29 0 c16 0 76 -14 134 -30 57 -17 109 -32 116 -33 7 -2 16 -6 19 -10 4 -4
17 -7 29 -7 12 0 30 -9 41 -21 18 -20 18 -20 -6 -15 -14 4 -36 8 -50 10 -14 3
-27 5 -30 6 -3 2 -9 2 -14 1 -5 -1 -18 6 -29 16 -11 10 -17 12 -12 4 6 -10 3
-12 -13 -7 -11 4 -31 9 -44 12 -38 8 -41 9 -98 28 -30 10 -59 22 -65 26 -5 5
-23 10 -40 12 -39 4 -37 18 25 118 28 44 50 84 50 89 0 5 7 14 15 21 8 7 15
18 14 24 0 7 -2 6 -6 -1 -2 -7 -10 -13 -17 -13 -12 0 -175 -169 -204 -212 -9
-13 -22 -27 -29 -31 -7 -4 -13 -14 -13 -21 0 -7 -11 -23 -25 -36 -28 -26 -31
-36 -12 -38 6 -1 37 -8 67 -17 30 -9 71 -21 90 -26 52 -14 62 -17 98 -28 18
-5 33 -9 35 -9 1 0 29 -7 62 -17 33 -10 66 -19 73 -21 8 -2 12 -12 10 -21 -2
-13 -12 -17 -33 -16 -71 4 -123 12 -160 22 -22 7 -49 14 -60 16 -15 3 -158 41
-202 54 -2 1 -11 1 -20 1 -15 0 -16 2 -3 10 13 8 12 10 -2 10 -10 0 -18 7 -18
17 0 9 -3 13 -6 10 -9 -9 -44 11 -44 25 0 11 20 44 82 135 15 23 28 46 28 52
0 6 4 11 8 11 4 0 16 14 27 32 l18 32 -29 -21 c-16 -11 -52 -45 -79 -75 -51
-55 -207 -252 -213 -268 -5 -14 26 -26 173 -65 198 -53 297 -75 309 -68 5 3 6
1 3 -4 -4 -6 0 -14 9 -17 23 -9 36 -7 29 4 -3 6 1 7 9 4 9 -3 16 -11 16 -18 0
-7 4 -6 9 3 6 9 11 10 15 2 5 -7 16 -5 34 6 26 17 26 17 13 0 -12 -15 -11 -17
3 -17 9 0 16 5 16 11 0 5 5 7 12 3 6 -4 8 -3 5 3 -4 6 0 16 8 23 13 11 18 10
31 -6 9 -10 13 -13 9 -6 -4 7 0 12 10 12 9 0 14 4 11 8 -2 4 12 8 32 7 28 0
36 4 34 15 -3 11 0 12 8 4 9 -9 21 -7 48 6 34 17 64 30 150 66 17 8 32 10 32
5 0 -5 -17 -16 -37 -24 -21 -9 -74 -32 -118 -53 -44 -21 -86 -39 -94 -40 -8
-2 -17 -7 -20 -11 -3 -5 -22 -15 -41 -23 -19 -8 -66 -28 -105 -46 -196 -89
-410 -178 -585 -243 -41 -15 -169 -65 -285 -110 -115 -46 -214 -84 -220 -85
-5 -1 -28 -10 -50 -20 -22 -9 -76 -30 -120 -46 -44 -16 -125 -45 -180 -65 -55
-20 -118 -42 -140 -49 -111 -36 -181 -58 -300 -91 -71 -20 -161 -46 -200 -57
-140 -40 -231 -67 -305 -89 -41 -12 -79 -23 -85 -25 -30 -6 -506 -141 -580
-164 -16 -5 -100 -30 -185 -56 -386 -114 -531 -172 -830 -326 -269 -140 -454
-231 -502 -249 -34 -12 -37 -16 -33 -43 4 -22 3 -27 -4 -16 -5 8 -8 17 -5 21
2 4 0 10 -6 14 -5 3 -10 -1 -10 -11 0 -12 -3 -14 -13 -5 -8 6 -18 7 -23 2 -5
-5 -25 -14 -46 -20 -59 -19 -64 -64 -6 -52 24 5 34 13 36 28 2 15 8 20 18 16
12 -4 12 -8 2 -22 -12 -14 -11 -15 5 -2 10 8 30 15 45 17 15 1 45 10 67 20 22
10 47 19 55 21 32 5 46 10 79 27 18 10 31 13 27 8 -3 -5 3 -12 14 -15 11 -3
18 -1 15 3 -3 5 -2 10 2 13 5 2 2 2 -4 1 -7 -2 -13 1 -13 7 0 6 11 8 29 4 17
-3 32 -2 36 4 4 7 -1 8 -12 4 -16 -6 -16 -5 -4 10 18 23 31 21 31 -2 0 -11 -8
-22 -18 -25 -24 -8 -72 -85 -72 -116 1 -34 24 -73 44 -76 10 -1 38 -12 64 -24
152 -72 483 -63 707 20 140 51 244 121 262 177 12 37 11 42 -12 80 -22 37 -85
68 -173 85 -69 13 -267 16 -375 5 -54 -5 -84 -4 -100 4 -19 11 -20 10 -9 -3
10 -13 9 -17 -10 -22 -36 -9 -50 -7 -43 6 4 7 -1 4 -9 -6 -9 -11 -16 -16 -16
-12 0 5 -6 4 -13 -1 -19 -16 -53 -21 -68 -12 -11 7 -10 9 4 9 9 0 17 4 17 10
0 5 7 7 15 4 9 -4 15 0 15 8 0 7 9 15 20 16 11 1 29 3 40 4 11 1 20 6 20 10 0
11 44 38 71 43 13 3 25 9 27 15 2 5 12 10 23 10 10 0 27 7 37 16 45 38 392
176 642 254 91 29 181 58 200 65 19 7 71 23 115 35 44 12 107 31 140 41 74 23
404 112 785 210 307 79 337 88 450 122 63 19 144 46 180 59 277 106 594 232
845 338 92 38 139 58 250 104 22 10 54 23 70 31 17 7 46 20 65 28 19 8 56 24
82 36 26 12 49 21 52 21 2 0 33 13 68 29 35 16 95 40 133 54 39 14 95 36 125
47 30 12 61 22 68 23 6 0 12 4 12 9 0 4 10 8 23 8 16 0 7 -10 -38 -39 -78 -51
-128 -97 -150 -141 -14 -27 -15 -32 -3 -23 21 18 30 4 13 -21 -23 -32 -18 -80
10 -114 41 -48 95 -65 225 -68 l115 -2 -105 8 c-199 15 -255 65 -219 195 12
41 27 59 94 105 43 29 180 100 192 100 5 -1 -19 -15 -52 -32 -70 -36 -143 -90
-127 -96 6 -2 41 12 79 31 127 63 321 119 415 121 26 1 48 4 48 8 0 3 42 5 94
3 95 -4 153 -20 189 -53 18 -16 18 -16 6 11 -24 52 -79 75 -214 87 l-90 8 110
-2 c125 -4 180 -20 220 -68 26 -31 32 -76 15 -109 -18 -34 9 -22 30 14 23 37
25 81 7 117 -18 35 -85 78 -134 86 -24 3 -43 9 -43 13 0 3 -36 6 -80 5 -43 0
-77 3 -74 8 3 4 9 6 14 3 4 -3 11 2 14 11 4 12 13 14 32 10 17 -5 23 -3 19 4
-6 10 18 14 64 10 14 -1 21 2 17 9 -4 6 -1 9 7 5 8 -3 18 0 22 5 3 6 11 9 16
6 5 -4 9 0 9 7 0 9 3 9 10 -2 5 -8 10 -10 10 -5 0 10 16 14 63 15 10 1 15 6
11 12 -4 6 -1 9 7 6 8 -3 13 -12 13 -21 -1 -9 2 -14 7 -11 5 3 9 11 9 19 0 9
24 17 73 24 39 6 92 15 117 21 137 29 385 43 517 28 83 -9 239 -50 257 -68 15
-15 29 -12 23 4 -4 9 -1 13 7 10 8 -3 17 9 23 31 8 26 8 33 0 28 -7 -3 -2 5
11 19 12 13 22 32 22 42 0 9 3 15 8 13 4 -3 12 0 17 7 13 14 16 48 4 40 -5 -3
-9 -1 -9 5 0 24 -186 65 -345 76 -108 8 -312 -6 -465 -32 -52 -8 -104 -17
-115 -19 -11 -1 -30 -5 -42 -8 -13 -3 -23 -1 -23 5 0 5 7 9 16 9 9 0 12 5 8
13 -5 9 -4 9 6 0 11 -10 16 -7 26 13 19 37 -2 69 -42 63 -4 0 -10 4 -14 11 -4
6 -13 12 -21 13 -8 2 -20 6 -26 10 -7 5 -13 6 -13 3 0 -3 -17 1 -37 8 -37 14
-187 53 -241 62 -15 3 -53 11 -85 19 -32 8 -61 15 -63 15 -2 0 -4 7 -4 15 0
10 11 15 33 16 17 0 44 3 60 5 28 5 135 -24 185 -50 16 -8 42 -17 58 -20 16
-2 29 -5 29 -6 0 -1 20 -4 44 -6 25 -3 52 -9 62 -14 15 -8 124 -21 204 -24 17
-1 35 5 42 14 15 18 17 33 3 25 -5 -3 -10 -2 -10 4 0 13 -165 74 -305 112 -44
12 -84 24 -90 27 -21 13 -53 8 -112 -19 -107 -48 -93 -4 37 118 47 43 101 90
120 103 19 13 41 32 48 42 7 10 20 18 28 18 8 0 12 4 9 10 -3 6 1 7 9 4 9 -3
16 -1 16 5 0 16 -30 13 -70 -8z m-874 -562 c90 -37 139 -62 158 -78 10 -9 21
-15 24 -13 4 2 8 -2 11 -9 2 -6 -1 -9 -7 -5 -6 3 -32 9 -59 12 -72 8 -205 39
-237 55 -36 18 -34 31 7 46 44 16 48 16 103 -8z m544 -9 c-8 -5 -19 -10 -25
-10 -5 0 -3 5 5 10 8 5 20 10 25 10 6 0 3 -5 -5 -10z m-800 -138 c19 -9 38
-20 41 -25 3 -5 10 -9 15 -9 17 -1 34 -10 34 -18 0 -15 -181 13 -237 37 -39
16 -40 21 -10 33 28 12 112 2 157 -18z m-346 -114 c34 -12 63 -25 66 -28 3 -4
14 -12 25 -19 16 -10 8 -11 -45 -5 -36 3 -76 11 -89 15 -27 11 -85 55 -59 46
10 -3 20 -2 23 3 8 13 9 13 79 -12z m665 -102 c-11 -11 -99 -44 -99 -38 0 4
19 15 43 24 42 17 64 22 56 14z m-932 -31 c25 -8 38 -32 17 -32 -8 0 -14 5
-14 11 0 6 -5 4 -10 -4 -9 -13 -10 -13 -11 0 -1 8 -1 20 0 25 1 6 -5 2 -12 -7
-18 -23 -27 -23 -27 1 0 19 14 21 57 6z m526 -50 c-3 -9 -8 -14 -10 -11 -3 3
-2 9 2 15 9 16 15 13 8 -4z m-4248 -1738 c6 -5 3 -7 -7 -3 -10 3 -18 1 -18 -4
0 -6 -7 -10 -15 -10 -12 0 -12 3 3 18 9 10 19 16 22 13 3 -3 10 -10 15 -14z
m-71 -22 c-6 -16 -24 -21 -24 -7 0 11 11 22 21 22 5 0 6 -7 3 -15z m-34 -30
c0 -1 -9 -5 -20 -8 -12 -3 -20 0 -20 8 0 8 8 11 20 8 11 -3 20 -7 20 -8z m819
-21 c18 -15 31 -35 31 -49 0 -37 -79 -99 -172 -134 -108 -42 -122 -39 -23 4
135 59 173 128 98 180 l-38 25 37 0 c25 0 46 -8 67 -26z m-689 -34 c0 -5 -6
-10 -14 -10 -17 0 -86 -75 -86 -94 0 -8 3 -22 6 -31 8 -19 94 -65 126 -66 16
-1 12 -4 -12 -9 -22 -6 -37 -5 -41 2 -4 6 -14 8 -23 5 -9 -4 -16 -2 -16 3 0 6
-5 10 -10 10 -12 0 -29 13 -61 45 -38 38 -10 86 76 130 58 29 55 28 55 15z
m-425 -24 c-17 -12 -55 -11 -55 1 0 3 9 3 20 0 11 -3 20 -1 20 4 0 5 8 9 17 9
15 0 15 -2 -2 -14z m-182 -57 c-8 -8 -13 -7 -18 2 -5 8 -4 10 3 5 7 -4 12 -2
12 5 0 7 3 9 7 6 4 -4 2 -12 -4 -18z m714 -135 c-3 -3 -12 -4 -19 -1 -8 3 -5
6 6 6 11 1 17 -2 13 -5z"/>
<path d="M7361 3589 c-65 -29 -139 -87 -158 -123 -8 -17 -12 -28 -8 -24 4 4
23 1 43 -8 47 -19 137 -42 197 -50 28 -3 61 -8 75 -10 14 -2 53 -6 88 -8 34
-3 66 -7 71 -10 5 -4 4 8 -2 24 -11 29 -13 30 -25 13 -13 -17 -14 -16 -7 5 3
12 3 22 -2 21 -12 -3 -62 21 -110 53 -49 33 -47 33 -148 8 -44 -11 -86 -20
-92 -20 -30 0 -9 31 57 86 61 50 78 66 68 63 -2 0 -23 -9 -47 -20z"/>
<path d="M8078 3495 c27 -55 50 -77 32 -30 -17 45 -40 85 -50 85 -5 0 3 -25
18 -55z"/>
<path d="M7121 3498 c-27 -24 -51 -51 -54 -61 -3 -9 24 8 59 39 35 31 64 58
64 60 0 13 -26 -1 -69 -38z"/>
<path d="M7783 3513 c-7 -2 -13 -11 -13 -19 0 -20 81 -15 88 5 3 8 0 11 -6 7
-6 -3 -13 -2 -17 4 -6 10 -31 12 -52 3z"/>
<path d="M8176 3497 c3 -10 9 -15 12 -12 3 3 0 11 -7 18 -10 9 -11 8 -5 -6z"/>
<path d="M8130 3460 c6 -11 13 -20 16 -20 2 0 0 9 -6 20 -6 11 -13 20 -16 20
-2 0 0 -9 6 -20z"/>
<path d="M8206 3437 c3 -10 9 -15 12 -12 3 3 0 11 -7 18 -10 9 -11 8 -5 -6z"/>
<path d="M6401 3421 c-8 -6 -9 -11 -3 -15 6 -3 14 -1 17 5 9 14 2 20 -14 10z"/>
<path d="M5225 2956 c-147 -160 -285 -335 -285 -360 0 -6 29 -16 155 -52 66
-18 143 -40 170 -49 46 -13 85 -20 188 -30 21 -2 42 -7 47 -10 5 -3 12 0 16 6
4 8 3 9 -4 5 -7 -4 -12 -2 -12 4 0 6 10 8 26 4 21 -5 25 -4 19 6 -5 8 -4 11 3
6 15 -9 24 10 9 21 -17 14 -106 43 -131 43 -12 0 -33 6 -47 14 -15 7 -66 24
-115 37 -80 20 -137 47 -155 73 -10 13 10 64 49 125 36 57 86 160 81 166 -2 1
-9 -2 -14 -9z m-50 -371 c47 -27 55 -39 30 -49 -8 -3 -15 -1 -15 5 0 6 -4 8
-8 5 -13 -8 -84 20 -97 38 -7 8 -15 13 -18 9 -4 -3 -7 -2 -7 4 0 31 50 27 115
-12z"/>
<path d="M5005 2900 c-10 -11 -22 -17 -26 -14 -5 3 -9 0 -9 -6 0 -6 -12 -24
-27 -40 -45 -45 -104 -116 -180 -219 -39 -53 -81 -108 -92 -123 -25 -31 -26
-38 -7 -38 7 0 49 -11 92 -25 43 -14 90 -27 104 -29 14 -3 41 -10 60 -16 19
-6 49 -13 65 -15 17 -2 41 -7 55 -10 66 -16 77 -18 100 -16 14 0 33 1 43 2 10
0 21 7 24 15 3 8 9 14 15 14 5 0 6 -6 2 -12 -4 -7 -3 -9 1 -5 15 14 15 39 -1
33 -8 -3 -14 -2 -14 2 0 10 -97 45 -223 81 -59 17 -109 31 -111 31 -3 0 -14
16 -26 35 -25 40 -27 36 67 174 35 52 66 105 69 118 4 13 10 23 15 23 5 0 9 5
9 11 0 7 7 17 17 24 10 7 12 14 6 18 -6 4 -18 -2 -28 -13z m-185 -425 c0 -9
-6 -12 -16 -8 -13 5 -13 7 -2 14 17 11 18 11 18 -6z m71 -10 c25 -8 44 -42 23
-42 -9 0 -13 6 -9 15 4 11 2 12 -8 4 -15 -12 -58 4 -64 25 -4 12 15 11 58 -2z"/>
<path d="M4750 2791 c0 -7 -5 -9 -12 -5 -7 4 -8 3 -4 -4 4 -7 3 -12 -2 -12
-10 0 -88 -77 -117 -115 -91 -121 -125 -167 -152 -205 -17 -25 -41 -55 -52
-67 -28 -30 -26 -41 7 -49 15 -3 36 -9 47 -12 23 -7 20 -6 60 -16 17 -4 37
-10 45 -13 8 -3 24 -7 35 -9 11 -1 48 -11 83 -22 40 -13 62 -16 62 -9 0 6 7 2
16 -9 8 -10 13 -14 10 -7 -4 7 1 11 14 10 11 -1 20 -5 20 -9 0 -5 9 -4 19 2
25 13 41 13 21 0 -9 -6 -10 -10 -3 -10 7 0 17 8 22 18 6 9 11 11 11 5 0 -7 9
-13 20 -13 15 0 18 4 12 21 -5 11 -12 21 -17 21 -6 0 -19 5 -30 11 -22 12 -27
14 -51 16 -9 0 -12 6 -8 13 4 7 3 8 -4 4 -11 -6 -55 4 -179 40 -52 15 -57 22
-69 86 -2 10 25 61 61 113 36 53 65 100 65 106 0 5 4 9 8 9 12 0 76 110 68
117 -3 3 -6 1 -6 -6z"/>
<path d="M4537 2745 c-10 -14 -23 -22 -32 -19 -8 4 -15 1 -15 -7 0 -7 -3 -10
-6 -6 -7 7 -97 -98 -159 -185 -111 -153 -181 -246 -207 -274 l-29 -31 33 -8
c39 -9 33 -7 88 -33 25 -12 50 -22 56 -22 6 0 38 -8 70 -19 106 -34 257 -47
272 -25 4 5 17 9 30 8 17 -1 20 2 12 11 -6 7 -22 12 -36 10 -19 -2 -22 1 -13
11 9 12 -12 20 -71 29 -39 5 -220 60 -220 67 0 4 -6 8 -13 8 -9 0 -12 14 -11
44 2 38 12 57 83 150 45 58 78 106 74 106 -5 0 -1 6 8 13 9 7 25 29 36 49 11
20 33 53 48 73 28 34 43 75 27 75 -4 0 -15 -12 -25 -25z"/>
<path d="M4325 2682 c-16 -9 -48 -24 -70 -35 -22 -11 -54 -30 -72 -43 -18 -14
-34 -19 -36 -14 -3 6 -4 5 -3 -2 1 -7 -26 -54 -61 -105 -35 -51 -63 -94 -63
-97 0 -3 -12 -18 -26 -33 -15 -15 -38 -46 -52 -68 -14 -22 -28 -42 -31 -45 -3
-3 -19 -23 -35 -44 -16 -21 -42 -51 -58 -66 l-28 -27 28 -1 c15 0 74 -19 132
-40 58 -22 119 -42 135 -46 17 -3 44 -8 60 -12 17 -3 44 -6 60 -8 17 -1 35 -5
42 -9 6 -4 14 0 17 9 3 8 10 13 14 10 11 -7 49 20 41 29 -4 3 -19 8 -35 11
-15 3 -32 8 -38 12 -6 3 -17 7 -26 9 -49 7 -231 60 -231 66 0 47 18 105 40
128 37 37 80 88 142 169 30 39 81 103 114 143 33 39 60 74 61 77 0 3 4 13 9
23 10 25 5 26 -30 9z"/>
<path d="M6847 2605 c7 -19 -149 -91 -257 -119 -52 -14 -138 -30 -190 -35 -91
-10 -96 -12 -128 -46 -41 -45 -42 -97 -2 -126 121 -90 534 -1 689 148 43 41
51 55 51 85 0 55 -36 84 -120 97 -36 6 -47 5 -43 -4z"/>
<path d="M1780 2594 c0 -8 5 -12 10 -9 6 3 10 10 10 16 0 5 -4 9 -10 9 -5 0
-10 -7 -10 -16z"/>
<path d="M4070 2545 c-7 -8 -18 -14 -24 -14 -15 3 -27 -3 -195 -82 -79 -38
-148 -69 -153 -69 -6 0 -22 -6 -36 -14 -76 -40 -210 -105 -232 -111 -29 -8
-87 -34 -180 -77 -62 -30 -119 -82 -175 -162 -99 -141 -176 -219 -250 -249
-39 -17 -39 -17 -7 -11 61 11 96 6 177 -26 81 -31 159 -43 216 -31 28 6 30 8
16 19 -8 7 -25 14 -36 15 -12 1 -21 4 -21 7 0 4 -26 14 -58 23 -33 9 -65 24
-73 33 -12 14 -10 19 10 35 l23 19 -31 0 c-49 0 -38 23 37 78 37 27 80 61 95
76 15 14 32 26 38 26 5 0 9 4 9 9 0 8 124 136 175 180 25 21 85 46 85 35 0
-10 -30 -62 -37 -66 -5 -1 -30 -32 -58 -67 -101 -128 -179 -213 -214 -231
l-36 -19 40 -1 c22 0 90 -16 150 -36 139 -45 303 -56 277 -19 -4 6 -14 11 -22
11 -25 2 -45 9 -50 16 -3 4 -17 9 -30 12 -41 8 -160 46 -160 52 0 3 12 17 28
31 15 15 20 24 10 20 -9 -3 -19 0 -22 8 -4 12 134 158 169 178 8 4 15 15 15
23 0 8 4 13 10 9 5 -3 17 7 27 22 10 15 39 49 65 74 25 26 43 50 40 54 -4 4
-2 5 3 3 6 -1 27 10 48 26 21 16 40 26 44 22 4 -3 -8 -27 -25 -51 -18 -25 -32
-48 -32 -51 0 -5 -76 -100 -90 -114 -3 -3 -27 -34 -54 -70 -26 -36 -64 -75
-84 -88 l-37 -23 38 3 c20 2 37 0 37 -4 0 -4 12 -8 26 -8 14 0 38 -6 52 -14
25 -14 134 -51 139 -48 2 1 21 -5 44 -13 93 -33 199 -25 225 17 5 7 2 8 -7 3
-12 -7 -12 -6 -1 7 12 15 7 18 -45 28 -31 7 -69 14 -83 16 -14 1 -45 8 -70 14
-25 6 -62 13 -82 17 -21 3 -43 13 -50 21 -11 13 -11 14 1 8 10 -7 12 -3 6 13
-5 16 -2 21 12 21 11 0 14 3 7 8 -25 16 12 77 92 153 51 47 102 104 139 154
17 22 45 55 62 74 18 18 30 39 26 45 -3 6 -3 8 2 4 8 -8 57 26 55 38 -1 4 4
11 12 15 8 5 9 9 2 9 -6 0 -17 -7 -24 -15z"/>
<path d="M7050 2451 c-64 -61 -172 -130 -265 -168 -92 -38 -86 -45 7 -9 119
44 244 123 289 180 35 45 16 43 -31 -3z"/>
<path d="M7295 2405 c-216 -38 -442 -134 -542 -230 -32 -31 -52 -54 -45 -50
16 8 15 -15 -3 -38 -14 -20 -11 -63 7 -85 28 -34 170 -73 184 -50 3 4 -12 8
-33 8 -51 1 -120 33 -134 64 -7 15 -8 36 -4 53 5 15 7 34 6 40 -2 14 105 96
163 124 57 27 58 23 3 -12 -26 -18 -46 -34 -43 -36 2 -3 48 13 103 35 105 43
276 89 358 97 28 3 58 8 68 11 26 8 22 -31 -5 -51 -65 -45 -345 -125 -439
-125 -35 0 -47 -6 -75 -36 -57 -59 -41 -101 46 -124 126 -34 432 43 583 147
46 32 81 86 72 112 -8 25 -81 61 -124 61 -18 0 -30 4 -26 10 9 15 136 2 177
-19 43 -21 49 -14 16 16 -29 26 -50 33 -118 44 -53 8 -53 8 20 5 83 -3 130
-22 157 -62 13 -21 15 -32 6 -55 -13 -34 -1 -38 21 -7 38 54 12 114 -62 145
-51 22 -236 26 -337 8z"/>
<path d="M6648 2233 c7 -3 16 -2 19 1 4 3 -2 6 -13 5 -11 0 -14 -3 -6 -6z"/>
<path d="M6608 2223 c7 -3 16 -2 19 1 4 3 -2 6 -13 5 -11 0 -14 -3 -6 -6z"/>
<path d="M6568 2213 c7 -3 16 -2 19 1 4 3 -2 6 -13 5 -11 0 -14 -3 -6 -6z"/>
<path d="M6508 2203 c7 -3 16 -2 19 1 4 3 -2 6 -13 5 -11 0 -14 -3 -6 -6z"/>
<path d="M7555 2153 c-33 -25 -96 -64 -140 -85 -44 -21 -69 -36 -55 -32 64 17
229 111 259 148 24 29 -3 16 -64 -31z"/>
<path d="M2922 2027 c-18 -12 -39 -32 -48 -44 -8 -13 -22 -23 -30 -23 -8 0
-14 -4 -14 -8 0 -5 -15 -25 -32 -44 -43 -47 -58 -66 -58 -73 0 -10 44 17 86
54 23 20 61 52 85 71 34 28 40 36 25 38 -16 4 -16 6 5 28 27 29 24 29 -19 1z"/>
<path d="M6978 1953 c6 -2 18 -2 25 0 6 3 1 5 -13 5 -14 0 -19 -2 -12 -5z"/>
<path d="M2655 1732 c-11 -2 -26 -11 -32 -20 -7 -9 -13 -12 -13 -6 0 5 -3 5
-8 -1 -4 -5 -27 -20 -52 -32 l-45 -22 46 6 c31 3 71 -2 125 -17 169 -46 241
-28 104 26 -71 27 -79 42 -37 62 19 9 15 11 -23 9 -25 -1 -54 -4 -65 -5z"/>
<path d="M2413 1620 c-13 -5 -33 -11 -45 -13 -37 -5 -122 -39 -138 -55 -13
-13 -10 -14 28 -9 24 3 80 -2 125 -10 107 -21 167 -23 161 -8 -3 7 -24 18 -47
24 -83 25 -103 51 -53 71 11 5 14 9 6 9 -8 0 -25 -4 -37 -9z"/>
<path d="M2110 1496 c-14 -8 -51 -22 -82 -32 -32 -10 -58 -20 -58 -24 0 -3 24
-3 54 0 41 4 62 13 90 38 39 34 37 40 -4 18z"/>
<path d="M3393 1500 c-305 -39 -582 -188 -593 -320 -3 -40 -1 -50 13 -50 7 0
29 -14 49 -30 68 -56 105 -64 298 -64 148 0 189 3 263 22 192 48 366 141 421
226 54 81 18 151 -98 195 -67 25 -240 35 -353 21z m298 -119 c0 10 2 11 6 2 2
-7 13 -13 23 -13 24 0 40 -21 46 -62 6 -31 2 -38 -46 -81 -41 -37 -147 -100
-170 -100 -3 0 -19 -6 -37 -14 -68 -28 -44 -10 43 32 99 48 164 107 164 150 0
28 -65 99 -82 89 -7 -4 -8 -2 -4 4 5 9 14 7 32 -4 19 -13 24 -14 25 -3z m-611
-65 c0 -3 -4 -8 -10 -11 -5 -3 -10 -1 -10 4 0 6 5 11 10 11 6 0 10 -2 10 -4z
m-69 -61 c-48 -43 -57 -67 -41 -105 12 -29 42 -47 113 -70 20 -6 37 -12 37
-14 0 -1 -20 -1 -45 -1 -25 0 -45 4 -45 9 0 4 -7 6 -15 3 -8 -4 -17 -2 -21 4
-3 5 -15 7 -27 4 -16 -5 -18 -4 -8 3 11 8 11 11 -1 18 -8 5 -22 20 -31 34 -23
36 -2 78 64 130 63 49 78 37 20 -15z m152 -192 c-7 -2 -19 -2 -25 0 -7 3 -2 5
12 5 14 0 19 -2 13 -5z m80 0 c-7 -2 -21 -2 -30 0 -10 3 -4 5 12 5 17 0 24 -2
18 -5z"/>
<path d="M1785 1353 c-19 -15 -19 -15 10 -8 37 8 57 25 30 25 -11 0 -29 -8
-40 -17z"/>
<path d="M3605 1046 c-228 -44 -416 -119 -494 -197 -30 -30 -43 -57 -20 -43
10 6 8 -10 -8 -53 -9 -23 53 -69 110 -82 30 -8 61 -11 68 -8 9 3 7 6 -6 6 -42
2 -98 24 -121 46 -32 32 -33 93 -1 122 25 24 89 61 127 74 l25 9 -24 -18 c-14
-9 -34 -25 -45 -34 -20 -17 -19 -17 19 -4 22 8 65 24 95 36 193 77 545 112
656 65 46 -19 50 -19 33 1 -18 22 -51 35 -129 50 l-65 14 67 -5 c88 -6 162
-37 178 -75 7 -16 9 -34 5 -39 -3 -6 1 -11 9 -11 25 0 32 66 10 92 -44 49 -98
62 -264 65 -99 1 -180 -3 -225 -11z m-285 -116 c-8 -5 -19 -10 -25 -10 -5 0
-3 5 5 10 8 5 20 10 25 10 6 0 3 -5 -5 -10z"/>
<path d="M3770 944 c-68 -35 -229 -73 -368 -87 -118 -11 -123 -12 -153 -43
-126 -130 245 -162 544 -48 70 27 140 73 163 109 28 43 -33 95 -111 93 -16 -1
-50 -11 -75 -24z"/>
<path d="M4004 854 c-21 -19 -79 -55 -129 -80 -49 -25 -79 -43 -65 -39 31 8
180 80 200 98 27 23 53 57 43 57 -5 0 -27 -16 -49 -36z"/>
<path d="M1051 735 c-1 -17 -3 -17 -11 -5 -5 8 -10 11 -10 5 0 -14 13 -30 28
-32 14 -3 14 4 2 32 l-9 20 0 -20z"/>
<path d="M990 731 c-14 -5 -37 -14 -50 -21 -50 -26 -58 -28 -68 -18 -6 6 -12
6 -16 0 -3 -5 3 -12 14 -15 11 -3 23 -1 26 4 3 5 14 9 25 9 14 0 18 -4 13 -12
-6 -10 -5 -10 8 -1 8 7 18 10 21 6 4 -3 7 -1 7 5 0 5 -3 12 -7 15 -5 2 -3 2 4
1 7 -2 15 1 19 7 3 6 12 8 18 6 7 -3 13 1 13 9 0 8 -1 14 -1 13 -1 0 -12 -4
-26 -8z"/>
<path d="M3728 713 c7 -3 16 -2 19 1 4 3 -2 6 -13 5 -11 0 -14 -3 -6 -6z"/>
<path d="M988 688 c7 -7 16 -7 28 0 14 8 13 10 -10 10 -18 0 -24 -4 -18 -10z"/>
<path d="M2506 495 c-239 -34 -426 -95 -498 -163 -39 -36 -23 -48 20 -14 44
34 75 52 119 68 40 14 35 1 -7 -16 -53 -22 -32 -31 23 -10 62 24 239 64 352
79 100 14 337 15 389 2 28 -7 35 -6 27 2 -6 6 -37 16 -68 23 -33 7 -46 13 -31
13 60 2 132 -21 161 -52 20 -22 31 -27 39 -19 20 20 -17 60 -74 78 -74 22
-322 28 -452 9z"/>
<path d="M2670 414 c-67 -23 -231 -49 -383 -60 -78 -5 -93 -9 -120 -34 -27
-24 -29 -30 -18 -43 25 -31 83 -42 211 -41 196 2 417 51 498 111 43 32 40 50
-10 73 -54 25 -96 23 -178 -6z"/>
<path d="M2941 364 c-13 -13 -46 -33 -72 -46 -58 -26 -59 -34 -2 -14 50 18
123 63 123 76 0 17 -24 9 -49 -16z"/>
<path d="M1015 329 c-99 -11 -195 -30 -195 -38 0 -4 17 -6 38 -4 34 2 32 1
-18 -16 -69 -22 -120 -49 -120 -61 0 -13 0 -13 50 11 94 46 216 62 465 62 127
0 253 -3 280 -7 69 -11 48 8 -31 28 -125 32 -318 43 -469 25z m-88 -35 c-3 -3
-12 -4 -19 -1 -8 3 -5 6 6 6 11 1 17 -2 13 -5z"/>
<path d="M2010 280 c0 -15 13 -27 43 -40 23 -11 49 -20 57 -20 8 0 -4 9 -27
19 -22 11 -44 29 -48 40 -8 27 -25 27 -25 1z"/>
<path d="M968 246 c-99 -18 -142 -32 -163 -56 -56 -62 98 -112 340 -112 187 1
350 38 368 86 9 22 -37 57 -95 73 -76 21 -353 26 -450 9z"/>
<path d="M1597 202 c8 -31 -36 -71 -107 -97 -79 -29 -57 -33 25 -5 72 25 107
55 103 89 -2 13 -8 26 -15 28 -7 3 -10 -3 -6 -15z"/>
<path d="M1388 73 c6 -2 18 -2 25 0 6 3 1 5 -13 5 -14 0 -19 -2 -12 -5z"/>
</g>
</svg>
